<?xml version="1.0" encoding="UTF-8" standalone="no"?>
<svg
   xmlns:dc="http://purl.org/dc/elements/1.1/"
   xmlns:cc="http://creativecommons.org/ns#"
   xmlns:rdf="http://www.w3.org/1999/02/22-rdf-syntax-ns#"
   xmlns:svg="http://www.w3.org/2000/svg"
   xmlns="http://www.w3.org/2000/svg"
   xmlns:sodipodi="http://sodipodi.sourceforge.net/DTD/sodipodi-0.dtd"
   xmlns:inkscape="http://www.inkscape.org/namespaces/inkscape"
   sodipodi:docname="aboutme.svg"
   inkscape:version="1.0beta2 (2b71d25, 2019-12-03)"
   id="svg950"
   version="1.1"
   viewBox="0 0 56.885231 8.5724697"
   height="8.5724697mm"
   width="56.885231mm">
  <defs
     id="defs944" />
  <sodipodi:namedview
     inkscape:window-maximized="0"
     inkscape:window-y="23"
     inkscape:window-x="0"
     inkscape:window-height="749"
     inkscape:window-width="1440"
     fit-margin-bottom="0"
     fit-margin-right="0"
     fit-margin-left="0"
     fit-margin-top="0"
     showgrid="false"
     inkscape:document-rotation="0"
     inkscape:current-layer="layer1"
     inkscape:document-units="mm"
     inkscape:cy="367.41502"
     inkscape:cx="16.621219"
     inkscape:zoom="0.62258979"
     inkscape:pageshadow="2"
     inkscape:pageopacity="0"
     borderopacity="1.0"
     bordercolor="#666666"
     pagecolor="#000000"
     id="base" />
  <metadata
     id="metadata947">
    <rdf:RDF>
      <cc:Work
         rdf:about="">
        <dc:format>image/svg+xml</dc:format>
        <dc:type
           rdf:resource="http://purl.org/dc/dcmitype/StillImage" />
        <dc:title></dc:title>
      </cc:Work>
    </rdf:RDF>
  </metadata>
  <g
     transform="translate(-9.2195945,-17.330994)"
     id="layer1"
     inkscape:groupmode="layer"
     inkscape:label="Layer 1">
    <g
       style="font-style:normal;font-weight:normal;font-size:10.5833px;line-height:1.25;font-family:sans-serif;fill:#000000;fill-opacity:1;stroke:none;stroke-width:0.264583"
       id="text954"
       aria-label="ABOUT ME">
      <path
         inkscape:connector-curvature="0"
         id="path1521"
         style="font-style:normal;font-variant:normal;font-weight:normal;font-stretch:normal;font-family:'.Aqua Kana';-inkscape-font-specification:'.Aqua Kana';word-spacing:-2.64583px;fill:#ffffff;stroke-width:0.264583"
         d="m 15.770657,25.638881 q -0.0635,-0.285749 -0.148166,-0.560915 -0.08467,-0.275165 -0.179916,-0.518581 l -0.550332,-1.365246 h -3.693571 l -0.550332,1.365246 q -0.116416,0.306915 -0.201083,0.560915 -0.07408,0.243416 -0.126999,0.518581 H 9.2195945 q 0.074083,-0.126999 0.1375829,-0.232832 0.0635,-0.116417 0.1164163,-0.243416 0.0635,-0.127 0.1375829,-0.296333 0.074083,-0.179916 0.1799161,-0.444498 L 12.161752,18.57982 q 0.148166,-0.370415 0.222249,-0.582081 0.07408,-0.222249 0.116416,-0.402165 h 1.068914 q 0.01058,0.07408 0.03175,0.148166 0.02117,0.07408 0.0635,0.179916 0.04233,0.105833 0.105833,0.264582 0.0635,0.148167 0.15875,0.391582 l 2.370659,5.841982 q 0.201083,0.476248 0.317499,0.740831 0.127,0.264582 0.243416,0.476248 z m -2.497659,-6.667478 q -0.01058,-0.03175 -0.02117,-0.05292 -0.01058,-0.03175 -0.03175,-0.09525 -0.02117,-0.0635 -0.0635,-0.179916 -0.04233,-0.126999 -0.116416,-0.349249 -0.04233,0.116417 -0.07408,0.211666 -0.02117,0.08467 -0.04233,0.137583 -0.05292,0.127 -0.07408,0.211666 -0.02117,0.08467 -0.04233,0.116417 l -1.354662,3.492488 h 3.185573 z" />
      <path
         inkscape:connector-curvature="0"
         id="path1523"
         style="font-style:normal;font-variant:normal;font-weight:normal;font-stretch:normal;font-family:'.Aqua Kana';-inkscape-font-specification:'.Aqua Kana';word-spacing:-2.64583px;fill:#ffffff;stroke-width:0.264583"
         d="m 18.98798,25.638881 q -0.349249,0 -0.624415,0.01058 -0.264582,0 -0.539748,0.02117 0.03175,-0.158749 0.04233,-0.296332 0.02117,-0.137583 0.03175,-0.285749 0.01058,-0.148166 0.01058,-0.317499 0.01058,-0.179916 0.01058,-0.412749 v -5.662065 q 0,-0.338666 -0.02117,-0.582082 -0.01058,-0.253999 -0.0635,-0.539748 0.127,0.01058 0.232833,0.02117 0.105833,0 0.232833,0 0.126999,0 0.285749,0 0.169332,0 0.402165,0 h 2.254243 q 1.15358,0 1.767411,0.507998 0.624415,0.497415 0.624415,1.439329 0,0.910164 -0.571499,1.418162 -0.169332,0.148166 -0.349248,0.232832 -0.169333,0.08467 -0.486832,0.1905 0.370415,0.07408 0.592665,0.169333 0.222249,0.09525 0.433915,0.275165 0.656164,0.560915 0.656164,1.587495 0,1.068914 -0.666747,1.650995 -0.666748,0.571498 -1.883828,0.571498 z m 2.24366,-4.593152 q 0.740831,0 1.153579,-0.370415 0.412749,-0.370416 0.412749,-1.037164 0,-1.322912 -1.576912,-1.322912 h -2.487075 v 2.730491 z m -2.497659,3.873488 h 2.550575 q 0.867831,0 1.312329,-0.402165 0.455082,-0.402166 0.455082,-1.164163 0,-1.587495 -1.788578,-1.587495 h -2.529408 z" />
      <path
         inkscape:connector-curvature="0"
         id="path1525"
         style="font-style:normal;font-variant:normal;font-weight:normal;font-stretch:normal;font-family:'.Aqua Kana';-inkscape-font-specification:'.Aqua Kana';word-spacing:-2.64583px;fill:#ffffff;stroke-width:0.264583"
         d="m 28.765792,17.436824 q 0.83608,0 1.513412,0.296333 0.677331,0.296332 1.153579,0.846663 0.476249,0.539749 0.730248,1.31233 0.253999,0.772581 0.253999,1.725077 0,0.952497 -0.264582,1.725078 -0.254,0.772581 -0.730248,1.322913 -0.476249,0.539748 -1.15358,0.83608 -0.677331,0.296333 -1.513412,0.296333 -0.83608,0 -1.513411,-0.296333 -0.677332,-0.296332 -1.15358,-0.83608 -0.476249,-0.550332 -0.730248,-1.322913 -0.253999,-0.772581 -0.253999,-1.725078 0,-0.952496 0.253999,-1.725077 0.264583,-0.772581 0.740831,-1.31233 0.476249,-0.550331 1.15358,-0.846663 0.677331,-0.296333 1.513412,-0.296333 z m 0.01058,7.609393 q 1.111246,0 1.830911,-0.719665 0.455082,-0.444498 0.698498,-1.142996 0.243416,-0.709081 0.243416,-1.566329 0,-0.878413 -0.232833,-1.555745 -0.232833,-0.687914 -0.698498,-1.153579 -0.751414,-0.730248 -1.852077,-0.730248 -0.634998,0 -1.15358,0.243416 -0.518582,0.243416 -0.888997,0.698498 -0.359832,0.444498 -0.560915,1.079496 -0.201083,0.634998 -0.201083,1.407579 0,0.783164 0.201083,1.418162 0.201083,0.624415 0.571498,1.079497 0.370416,0.455082 0.888997,0.698498 0.518582,0.243416 1.15358,0.243416 z" />
      <path
         inkscape:connector-curvature="0"
         id="path1527"
         style="font-style:normal;font-variant:normal;font-weight:normal;font-stretch:normal;font-family:'.Aqua Kana';-inkscape-font-specification:'.Aqua Kana';word-spacing:-2.64583px;fill:#ffffff;stroke-width:0.264583"
         d="m 40.353677,17.595574 q -0.05292,0.275165 -0.07408,0.539748 -0.01058,0.253999 -0.01058,0.656164 v 3.926405 q 0,1.407578 -0.814914,2.254242 -0.402165,0.402166 -1.015996,0.624415 -0.613832,0.211666 -1.386413,0.211666 -0.783164,0 -1.396995,-0.211666 -0.613832,-0.222249 -1.015997,-0.645581 -0.783164,-0.814914 -0.783164,-2.233076 v -3.905238 q 0,-0.402165 -0.02117,-0.666748 -0.01058,-0.275166 -0.0635,-0.550331 h 0.994831 q -0.05292,0.253999 -0.07408,0.529165 -0.01058,0.264582 -0.01058,0.687914 v 3.873488 q 0,1.153579 0.613832,1.777994 0.624414,0.613831 1.767411,0.613831 0.613831,0 1.079496,-0.179916 0.476249,-0.190499 0.772581,-0.529165 0.253999,-0.306915 0.391582,-0.740831 0.137583,-0.433915 0.137583,-0.941913 v -3.873488 q 0,-0.402165 -0.02117,-0.666748 -0.01058,-0.275166 -0.0635,-0.550331 z" />
      <path
         inkscape:connector-curvature="0"
         id="path1529"
         style="font-style:normal;font-variant:normal;font-weight:normal;font-stretch:normal;font-family:'.Aqua Kana';-inkscape-font-specification:'.Aqua Kana';word-spacing:-2.64583px;fill:#ffffff;stroke-width:0.264583"
         d="m 44.993794,24.442968 q 0,0.391583 0.01058,0.656165 0.02117,0.253999 0.07408,0.539748 h -0.99483 q 0.05292,-0.243416 0.0635,-0.529165 0.02117,-0.296332 0.02117,-0.666748 v -6.106563 h -1.650995 q -0.402165,0 -0.677331,0.02117 -0.275166,0.01058 -0.539748,0.05292 v -0.888997 q 0.275166,0.04233 0.529165,0.0635 0.253999,0.01058 0.677331,0.01058 h 4.127487 q 0.232833,0 0.402165,0 0.179916,-0.01058 0.317499,-0.01058 0.148167,-0.01058 0.275166,-0.02117 0.127,-0.02117 0.253999,-0.04233 v 0.888997 q -0.264582,-0.04233 -0.539748,-0.05292 -0.264582,-0.02117 -0.709081,-0.02117 h -1.640411 z" />
      <path
         inkscape:connector-curvature="0"
         id="path1531"
         style="font-weight:bold;word-spacing:-2.64583px;fill:#ffffff"
         d="m 53.496642,25.829381 q -0.04233,-0.253999 -0.169333,-0.613832 -0.116416,-0.370415 -0.296332,-0.814914 l -1.523995,-3.630071 q -0.07408,-0.179917 -0.137583,-0.328083 -0.05292,-0.158749 -0.116416,-0.338665 -0.0635,-0.179916 -0.127,-0.402166 -0.0635,-0.232832 -0.15875,-0.550331 0.01058,0.211666 0.02117,0.465665 0.02117,0.253999 0.03175,0.497415 0.02117,0.232833 0.02117,0.423332 0.01058,0.190499 0.01058,0.275166 v 3.471322 q 0,0.550332 0.01058,0.89958 0.02117,0.338666 0.07408,0.645582 h -1.481662 q 0.04233,-0.317499 0.0635,-0.666748 0.02117,-0.349249 0.02117,-0.878414 v -5.312816 q 0,-0.518582 -0.02117,-0.878414 -0.01058,-0.359832 -0.0635,-0.687915 h 1.936744 q 0.116416,0.582082 0.391582,1.259413 l 2.14841,5.249316 2.137827,-5.249316 q 0.158749,-0.391582 0.243416,-0.666748 0.08467,-0.285749 0.137582,-0.592665 h 1.947328 q -0.02117,0.1905 -0.04233,0.359832 -0.01058,0.169333 -0.02117,0.349249 -0.01058,0.179916 -0.02117,0.391582 0,0.201083 0,0.465666 v 5.312816 q 0,0.582081 0.01058,0.920747 0.02117,0.328082 0.07408,0.624415 h -1.481662 q 0.05292,-0.328083 0.0635,-0.656165 0.02117,-0.338665 0.02117,-0.888997 v -3.513655 q 0.03175,-0.698498 0.05292,-1.100664 0.02117,-0.402165 0.03175,-0.518581 -0.105833,0.433915 -0.243416,0.846664 -0.126999,0.412748 -0.243415,0.698497 l -1.587495,3.725322 q -0.08467,0.190499 -0.15875,0.391582 -0.0635,0.190499 -0.126999,0.380999 -0.0635,0.190499 -0.116417,0.359832 -0.04233,0.158749 -0.0635,0.275166 z" />
      <path
         inkscape:connector-curvature="0"
         id="path1533"
         style="font-weight:bold;word-spacing:-2.64583px;fill:#ffffff"
         d="m 66.104825,25.903464 q -0.285749,-0.04233 -0.582082,-0.0635 -0.296332,-0.01058 -0.783164,-0.01058 H 61.43759 q -0.243416,0 -0.423332,0 -0.179916,0 -0.328083,0 -0.148166,0.01058 -0.296332,0.01058 -0.137583,0.01058 -0.296332,0.02117 0.04233,-0.317499 0.0635,-0.624415 0.02117,-0.306916 0.02117,-0.772581 V 18.73857 q 0,-0.412749 -0.02117,-0.698498 -0.01058,-0.296332 -0.0635,-0.666748 0.158749,0.01058 0.296332,0.02117 0.137583,0 0.285749,0.01058 0.15875,0 0.338666,0 0.179916,0 0.423332,0 h 3.196156 q 0.402166,0 0.698498,-0.01058 0.296332,-0.02117 0.666748,-0.0635 v 1.396996 q -0.148166,-0.02117 -0.296333,-0.03175 -0.148166,-0.02117 -0.306915,-0.02117 -0.15875,-0.01058 -0.349249,-0.01058 -0.179916,-0.01058 -0.412749,-0.01058 h -3.04799 v 2.180159 h 2.571742 q 0.412748,0 0.719664,-0.01058 0.306916,-0.02117 0.656165,-0.0635 v 1.386412 q -0.15875,-0.02117 -0.306916,-0.03175 -0.137583,-0.02117 -0.296332,-0.02117 -0.15875,-0.01058 -0.349249,-0.01058 -0.179916,-0.01058 -0.423332,-0.01058 h -2.582325 v 2.497659 h 3.174989 q 0.444499,0 0.730248,-0.01058 0.285749,-0.02117 0.624415,-0.0635 z" />
    </g>
  </g>
</svg>
