<?xml version="1.0" encoding="UTF-8" standalone="no"?>
<svg
   xmlns:dc="http://purl.org/dc/elements/1.1/"
   xmlns:cc="http://creativecommons.org/ns#"
   xmlns:rdf="http://www.w3.org/1999/02/22-rdf-syntax-ns#"
   xmlns:svg="http://www.w3.org/2000/svg"
   xmlns="http://www.w3.org/2000/svg"
   xmlns:sodipodi="http://sodipodi.sourceforge.net/DTD/sodipodi-0.dtd"
   xmlns:inkscape="http://www.inkscape.org/namespaces/inkscape"
   sodipodi:docname="contactme.svg"
   inkscape:version="1.0beta2 (2b71d25, 2019-12-03)"
   id="svg1560"
   version="1.1"
   viewBox="0 0 70.766381 8.5724726"
   height="8.5724726mm"
   width="70.76638mm">
  <defs
     id="defs1554">
    <rect
       id="rect1705"
       height="14.714467"
       width="139.78743"
       y="45.277767"
       x="28.772873" />
  </defs>
  <sodipodi:namedview
     inkscape:window-maximized="0"
     inkscape:window-y="23"
     inkscape:window-x="0"
     inkscape:window-height="749"
     inkscape:window-width="1440"
     fit-margin-bottom="0"
     fit-margin-right="0"
     fit-margin-left="0"
     fit-margin-top="0"
     showgrid="false"
     inkscape:document-rotation="0"
     inkscape:current-layer="layer1"
     inkscape:document-units="mm"
     inkscape:cy="77.143245"
     inkscape:cx="61.371925"
     inkscape:zoom="0.93502088"
     inkscape:pageshadow="2"
     inkscape:pageopacity="0"
     borderopacity="1.0"
     bordercolor="#666666"
     pagecolor="#000000"
     id="base" />
  <metadata
     id="metadata1557">
    <rdf:RDF>
      <cc:Work
         rdf:about="">
        <dc:format>image/svg+xml</dc:format>
        <dc:type
           rdf:resource="http://purl.org/dc/dcmitype/StillImage" />
        <dc:title></dc:title>
      </cc:Work>
    </rdf:RDF>
  </metadata>
  <g
     transform="translate(-59.567616,-43.581891)"
     id="layer1"
     inkscape:groupmode="layer"
     inkscape:label="Layer 1">
    <g
       style="font-style:normal;font-weight:normal;font-size:10.58329999999999949px;line-height:1.25;font-family:sans-serif;fill:#ffffff;fill-opacity:1;stroke:none;stroke-width:0.264583"
       id="text1776"
       aria-label="CONTACT ME">
      <path
         id="path1780"
         style="font-style:normal;font-variant:normal;font-weight:normal;font-stretch:normal;font-size:10.58329999999999949px;font-family:'.Aqua Kana';-inkscape-font-specification:'.Aqua Kana Normal';font-variant-ligatures:normal;font-variant-caps:normal;font-variant-numeric:normal;font-variant-east-asian:normal;word-spacing:-2.64583000000000013px;fill:#ffffff;stroke-width:0.264583"
         d="m 65.54718,46.132467 q -0.116416,-0.338666 -0.222249,-0.539749 -0.105833,-0.201082 -0.275166,-0.391582 -0.645581,-0.761997 -1.830911,-0.761997 -0.645581,0 -1.164163,0.243416 -0.507998,0.232832 -0.878413,0.677331 -0.359833,0.444498 -0.560915,1.079496 -0.1905,0.624415 -0.1905,1.418162 0,0.783165 0.1905,1.418163 0.201082,0.634998 0.560915,1.079496 0.370415,0.444499 0.888997,0.687915 0.518581,0.243416 1.153579,0.243416 0.634998,0 1.142997,-0.22225 0.507998,-0.232832 0.83608,-0.666748 0.169333,-0.232832 0.254,-0.455082 0.09525,-0.232832 0.169332,-0.603248 l 0.878414,0.211666 q -0.137583,0.465666 -0.264582,0.740831 -0.116417,0.264583 -0.306916,0.518582 -0.444499,0.603248 -1.142996,0.920747 -0.698498,0.306916 -1.598079,0.306916 -0.761997,0 -1.396995,-0.232833 -0.624415,-0.232832 -1.079497,-0.698498 -0.560915,-0.560914 -0.857247,-1.386412 -0.285749,-0.83608 -0.285749,-1.830911 0,-1.02658 0.306916,-1.86266 0.306915,-0.846664 0.89958,-1.428746 0.931331,-0.89958 2.423576,-0.89958 1.513412,0 2.370659,0.857247 0.137583,0.137583 0.243416,0.275166 0.116416,0.126999 0.211666,0.285749 0.09525,0.148166 0.179916,0.338665 0.09525,0.1905 0.190499,0.433916 z" />
      <path
         id="path1782"
         style="font-style:normal;font-variant:normal;font-weight:normal;font-stretch:normal;font-size:10.58329999999999949px;font-family:'.Aqua Kana';-inkscape-font-specification:'.Aqua Kana Normal';font-variant-ligatures:normal;font-variant-caps:normal;font-variant-numeric:normal;font-variant-east-asian:normal;word-spacing:-2.64583000000000013px;fill:#ffffff;stroke-width:0.264583"
         d="m 71.228924,43.687724 q 0.836081,0 1.513412,0.296333 0.677331,0.296332 1.15358,0.846664 0.476248,0.539748 0.730247,1.312329 0.253999,0.772581 0.253999,1.725078 0,0.952497 -0.264582,1.725078 -0.253999,0.77258 -0.730248,1.322912 -0.476248,0.539748 -1.153579,0.836081 -0.677332,0.296332 -1.513412,0.296332 -0.836081,0 -1.513412,-0.296332 -0.677331,-0.296333 -1.15358,-0.836081 -0.476248,-0.550332 -0.730247,-1.322912 -0.254,-0.772581 -0.254,-1.725078 0,-0.952497 0.254,-1.725078 0.264582,-0.772581 0.740831,-1.312329 0.476248,-0.550332 1.153579,-0.846664 0.677331,-0.296333 1.513412,-0.296333 z m 0.01058,7.609393 q 1.111247,0 1.830911,-0.719665 0.455082,-0.444498 0.698498,-1.142996 0.243416,-0.709081 0.243416,-1.566328 0,-0.878414 -0.232833,-1.555745 -0.232832,-0.687915 -0.698497,-1.15358 -0.751415,-0.730248 -1.852078,-0.730248 -0.634998,0 -1.15358,0.243416 -0.518581,0.243416 -0.888997,0.698498 -0.359832,0.444499 -0.560915,1.079497 -0.201082,0.634998 -0.201082,1.407578 0,0.783165 0.201082,1.418163 0.201083,0.624414 0.571499,1.079496 0.370415,0.455082 0.888997,0.698498 0.518581,0.243416 1.153579,0.243416 z" />
      <path
         id="path1784"
         style="font-style:normal;font-variant:normal;font-weight:normal;font-stretch:normal;font-size:10.58329999999999949px;font-family:'.Aqua Kana';-inkscape-font-specification:'.Aqua Kana Normal';font-variant-ligatures:normal;font-variant-caps:normal;font-variant-numeric:normal;font-variant-east-asian:normal;word-spacing:-2.64583000000000013px;fill:#ffffff;stroke-width:0.264583"
         d="m 77.376994,43.846474 q 0.07408,0.179916 0.190499,0.391582 0.116416,0.201083 0.349249,0.560915 l 3.344323,5.005901 q 0.04233,0.0635 0.116416,0.190499 0.08467,0.127 0.179916,0.285749 0.09525,0.15875 0.190499,0.338666 0.105833,0.169332 0.201083,0.338665 -0.0635,-1.269996 -0.0635,-1.407579 v -4.487319 q 0,-0.391582 -0.02117,-0.666748 -0.01058,-0.275165 -0.0635,-0.550331 h 0.984247 q -0.05292,0.285749 -0.07408,0.550331 -0.01058,0.264583 -0.01058,0.666748 v 5.640899 q 0,0.402165 0.01058,0.666748 0.02117,0.264582 0.07408,0.518582 h -1.15358 q -0.05292,-0.116417 -0.105833,-0.211666 -0.05292,-0.105833 -0.116416,-0.211666 -0.0635,-0.116417 -0.148166,-0.243416 -0.07408,-0.127 -0.179916,-0.285749 l -3.39724,-5.101151 q -0.03175,-0.04233 -0.105833,-0.169333 -0.07408,-0.126999 -0.169332,-0.275165 -0.08467,-0.15875 -0.169333,-0.306916 -0.08467,-0.15875 -0.137583,-0.264583 0.03175,0.370416 0.04233,0.730248 0.02117,0.349249 0.02117,0.560915 v 4.519069 q 0,0.423332 0.01058,0.709081 0.02117,0.285749 0.07408,0.550332 h -0.984247 q 0.05292,-0.254 0.0635,-0.550332 0.02117,-0.296332 0.02117,-0.709081 v -5.598566 q 0,-0.370415 -0.02117,-0.634998 -0.01058,-0.264582 -0.0635,-0.550331 z" />
      <path
         id="path1786"
         style="font-style:normal;font-variant:normal;font-weight:normal;font-stretch:normal;font-size:10.58329999999999949px;font-family:'.Aqua Kana';-inkscape-font-specification:'.Aqua Kana Normal';font-variant-ligatures:normal;font-variant-caps:normal;font-variant-numeric:normal;font-variant-east-asian:normal;word-spacing:-2.64583000000000013px;fill:#ffffff;stroke-width:0.264583"
         d="m 87.456926,50.693869 q 0,0.391582 0.01058,0.656164 0.02117,0.254 0.07408,0.539749 h -0.99483 q 0.05292,-0.243416 0.0635,-0.529165 0.02117,-0.296333 0.02117,-0.666748 v -6.106564 h -1.650995 q -0.402165,0 -0.677331,0.02117 -0.275166,0.01058 -0.539748,0.05292 v -0.888997 q 0.275166,0.04233 0.529165,0.0635 0.253999,0.01058 0.677331,0.01058 h 4.127487 q 0.232832,0 0.402165,0 0.179916,-0.01058 0.317499,-0.01058 0.148166,-0.01058 0.275166,-0.02117 0.127,-0.02117 0.253999,-0.04233 v 0.888997 q -0.264582,-0.04233 -0.539748,-0.05292 -0.264583,-0.02117 -0.709081,-0.02117 h -1.640412 z" />
      <path
         id="path1788"
         style="font-style:normal;font-variant:normal;font-weight:normal;font-stretch:normal;font-size:10.58329999999999949px;font-family:'.Aqua Kana';-inkscape-font-specification:'.Aqua Kana Normal';font-variant-ligatures:normal;font-variant-caps:normal;font-variant-numeric:normal;font-variant-east-asian:normal;word-spacing:-2.64583000000000013px;fill:#ffffff;stroke-width:0.264583"
         d="m 96.133164,51.889782 q -0.0635,-0.285749 -0.148166,-0.560915 -0.08467,-0.275166 -0.179916,-0.518582 L 95.25475,49.445039 h -3.693572 l -0.550331,1.365246 q -0.116416,0.306916 -0.201083,0.560915 -0.07408,0.243416 -0.126999,0.518582 h -1.100664 q 0.07408,-0.127 0.137583,-0.232833 0.0635,-0.116416 0.116417,-0.243416 0.0635,-0.126999 0.137582,-0.296332 0.07408,-0.179916 0.179917,-0.444499 l 2.370659,-5.841981 q 0.148166,-0.370416 0.222249,-0.582082 0.07408,-0.222249 0.116416,-0.402165 h 1.068914 q 0.01058,0.07408 0.03175,0.148166 0.02117,0.07408 0.0635,0.179916 0.04233,0.105833 0.105833,0.264583 0.0635,0.148166 0.15875,0.391582 l 2.370659,5.841981 q 0.201083,0.476249 0.317499,0.740831 0.126999,0.264583 0.243416,0.476249 z m -2.497659,-6.667479 q -0.01058,-0.03175 -0.02117,-0.05292 -0.01058,-0.03175 -0.03175,-0.09525 -0.02117,-0.0635 -0.0635,-0.179916 -0.04233,-0.127 -0.116416,-0.349249 -0.04233,0.116416 -0.07408,0.211666 -0.02117,0.08467 -0.04233,0.137583 -0.05292,0.126999 -0.07408,0.211666 -0.02117,0.08467 -0.04233,0.116416 l -1.354662,3.492489 h 3.185573 z" />
      <path
         id="path1790"
         style="font-style:normal;font-variant:normal;font-weight:normal;font-stretch:normal;font-size:10.58329999999999949px;font-family:'.Aqua Kana';-inkscape-font-specification:'.Aqua Kana Normal';font-variant-ligatures:normal;font-variant-caps:normal;font-variant-numeric:normal;font-variant-east-asian:normal;word-spacing:-2.64583000000000013px;fill:#ffffff;stroke-width:0.264583"
         d="m 103.91164,46.132467 q -0.11642,-0.338666 -0.22225,-0.539749 -0.10583,-0.201082 -0.27516,-0.391582 -0.64559,-0.761997 -1.83092,-0.761997 -0.64558,0 -1.16416,0.243416 -0.507997,0.232832 -0.878412,0.677331 -0.359833,0.444498 -0.560915,1.079496 -0.1905,0.624415 -0.1905,1.418162 0,0.783165 0.1905,1.418163 0.201082,0.634998 0.560915,1.079496 0.370415,0.444499 0.888992,0.687915 0.51859,0.243416 1.15358,0.243416 0.635,0 1.143,-0.22225 0.508,-0.232832 0.83608,-0.666748 0.16933,-0.232832 0.254,-0.455082 0.0953,-0.232832 0.16933,-0.603248 l 0.87842,0.211666 q -0.13759,0.465666 -0.26459,0.740831 -0.11641,0.264583 -0.30691,0.518582 -0.4445,0.603248 -1.143,0.920747 -0.6985,0.306916 -1.59808,0.306916 -0.76199,0 -1.39699,-0.232833 -0.624416,-0.232832 -1.079498,-0.698498 -0.560915,-0.560914 -0.857247,-1.386412 -0.285749,-0.83608 -0.285749,-1.830911 0,-1.02658 0.306916,-1.86266 0.306915,-0.846664 0.89958,-1.428746 0.931328,-0.89958 2.423578,-0.89958 1.51341,0 2.37066,0.857247 0.13758,0.137583 0.24341,0.275166 0.11642,0.126999 0.21167,0.285749 0.0953,0.148166 0.17991,0.338665 0.0952,0.1905 0.1905,0.433916 z" />
      <path
         id="path1792"
         style="font-style:normal;font-variant:normal;font-weight:normal;font-stretch:normal;font-size:10.58329999999999949px;font-family:'.Aqua Kana';-inkscape-font-specification:'.Aqua Kana Normal';font-variant-ligatures:normal;font-variant-caps:normal;font-variant-numeric:normal;font-variant-east-asian:normal;word-spacing:-2.64583000000000013px;fill:#ffffff;stroke-width:0.264583"
         d="m 109.22297,50.693869 q 0,0.391582 0.0106,0.656164 0.0212,0.254 0.0741,0.539749 h -0.99483 q 0.0529,-0.243416 0.0635,-0.529165 0.0212,-0.296333 0.0212,-0.666748 v -6.106564 h -1.65099 q -0.40217,0 -0.67733,0.02117 -0.27517,0.01058 -0.53975,0.05292 v -0.888997 q 0.27517,0.04233 0.52916,0.0635 0.254,0.01058 0.67734,0.01058 h 4.12748 q 0.23284,0 0.40217,0 0.17991,-0.01058 0.3175,-0.01058 0.14816,-0.01058 0.27516,-0.02117 0.127,-0.02117 0.254,-0.04233 v 0.888997 q -0.26458,-0.04233 -0.53975,-0.05292 -0.26458,-0.02117 -0.70908,-0.02117 h -1.64041 z" />
      <path
         id="path1794"
         style="font-weight:bold;word-spacing:-2.64583000000000013px;fill:#ffffff"
         d="m 117.72582,52.080281 q -0.0423,-0.253999 -0.16933,-0.613831 -0.11642,-0.370416 -0.29634,-0.814914 l -1.52399,-3.630072 q -0.0741,-0.179916 -0.13758,-0.328083 -0.0529,-0.158749 -0.11642,-0.338665 -0.0635,-0.179916 -0.127,-0.402165 -0.0635,-0.232833 -0.15875,-0.550332 0.0106,0.211666 0.0212,0.465665 0.0212,0.253999 0.0318,0.497415 0.0212,0.232833 0.0212,0.423332 0.0106,0.1905 0.0106,0.275166 v 3.471322 q 0,0.550332 0.0106,0.899581 0.0212,0.338665 0.0741,0.645581 h -1.48166 q 0.0423,-0.317499 0.0635,-0.666748 0.0212,-0.349249 0.0212,-0.878414 v -5.312816 q 0,-0.518582 -0.0212,-0.878414 -0.0106,-0.359832 -0.0635,-0.687915 h 1.93675 q 0.11641,0.582082 0.39158,1.259413 l 2.14841,5.249317 2.13782,-5.249317 q 0.15875,-0.391582 0.24342,-0.666748 0.0847,-0.285749 0.13758,-0.592665 h 1.94733 q -0.0212,0.1905 -0.0423,0.359833 -0.0106,0.169332 -0.0212,0.349249 -0.0106,0.179916 -0.0212,0.391582 0,0.201082 0,0.465665 v 5.312816 q 0,0.582082 0.0106,0.920747 0.0212,0.328083 0.0741,0.624415 h -1.48166 q 0.0529,-0.328082 0.0635,-0.656165 0.0212,-0.338665 0.0212,-0.888997 v -3.513655 q 0.0318,-0.698498 0.0529,-1.100663 0.0212,-0.402166 0.0318,-0.518582 -0.10583,0.433915 -0.24342,0.846664 -0.12699,0.412749 -0.24341,0.698498 l -1.5875,3.725321 q -0.0847,0.1905 -0.15875,0.391582 -0.0635,0.1905 -0.12699,0.380999 -0.0635,0.190499 -0.11642,0.359832 -0.0423,0.15875 -0.0635,0.275166 z" />
      <path
         id="path1796"
         style="font-weight:bold;word-spacing:-2.64583000000000013px;fill:#ffffff"
         d="m 130.334,52.154364 q -0.28575,-0.04233 -0.58208,-0.0635 -0.29634,-0.01058 -0.78317,-0.01058 h -3.30199 q -0.24341,0 -0.42333,0 -0.17991,0 -0.32808,0 -0.14817,0.01058 -0.29633,0.01058 -0.13759,0.01058 -0.29634,0.02117 0.0423,-0.317499 0.0635,-0.624415 0.0212,-0.306915 0.0212,-0.772581 V 44.98947 q 0,-0.412748 -0.0212,-0.698498 -0.0106,-0.296332 -0.0635,-0.666747 0.15875,0.01058 0.29634,0.02117 0.13758,0 0.28575,0.01058 0.15875,0 0.33866,0 0.17992,0 0.42333,0 h 3.19616 q 0.40217,0 0.6985,-0.01058 0.29633,-0.02117 0.66675,-0.0635 v 1.396996 q -0.14817,-0.02117 -0.29634,-0.03175 -0.14816,-0.02117 -0.30691,-0.02117 -0.15875,-0.01058 -0.34925,-0.01058 -0.17992,-0.01058 -0.41275,-0.01058 h -3.04799 v 2.18016 h 2.57174 q 0.41275,0 0.71967,-0.01058 0.30691,-0.02117 0.65616,-0.0635 v 1.386413 q -0.15875,-0.02117 -0.30692,-0.03175 -0.13758,-0.02117 -0.29633,-0.02117 -0.15875,-0.01058 -0.34925,-0.01058 -0.17991,-0.01058 -0.42333,-0.01058 h -2.58232 v 2.497658 h 3.17499 q 0.44449,0 0.73024,-0.01058 0.28575,-0.02117 0.62442,-0.0635 z" />
    </g>
  </g>
</svg>
