<?xml version="1.0" encoding="UTF-8" standalone="no"?>
<svg
   xmlns:dc="http://purl.org/dc/elements/1.1/"
   xmlns:cc="http://creativecommons.org/ns#"
   xmlns:rdf="http://www.w3.org/1999/02/22-rdf-syntax-ns#"
   xmlns:svg="http://www.w3.org/2000/svg"
   xmlns="http://www.w3.org/2000/svg"
   xmlns:sodipodi="http://sodipodi.sourceforge.net/DTD/sodipodi-0.dtd"
   xmlns:inkscape="http://www.inkscape.org/namespaces/inkscape"
   sodipodi:docname="environmenteducationgis-light.svg"
   inkscape:version="1.0beta2 (2b71d25, 2019-12-03)"
   id="svg8"
   version="1.1"
   viewBox="0 0 210.73863 12.5222"
   height="12.5222mm"
   width="210.73863mm">
  <defs
     id="defs2">
    <rect
       id="rect12"
       height="22.332266"
       width="231.44348"
       y="15.835606"
       x="17.05373" />
  </defs>
  <sodipodi:namedview
     inkscape:window-maximized="0"
     inkscape:window-y="23"
     inkscape:window-x="0"
     inkscape:window-height="749"
     inkscape:window-width="1440"
     fit-margin-bottom="0"
     fit-margin-right="0"
     fit-margin-left="0"
     fit-margin-top="0"
     showgrid="false"
     inkscape:document-rotation="0"
     inkscape:current-layer="layer1"
     inkscape:document-units="mm"
     inkscape:cy="180.35501"
     inkscape:cx="331.69916"
     inkscape:zoom="0.62303827"
     inkscape:pageshadow="2"
     inkscape:pageopacity="0"
     borderopacity="1.0"
     bordercolor="#666666"
     pagecolor="#000000"
     id="base" />
  <metadata
     id="metadata5">
    <rdf:RDF>
      <cc:Work
         rdf:about="">
        <dc:format>image/svg+xml</dc:format>
        <dc:type
           rdf:resource="http://purl.org/dc/dcmitype/StillImage" />
        <dc:title></dc:title>
      </cc:Work>
    </rdf:RDF>
  </metadata>
  <g
     transform="translate(-18.032587,-18.668037)"
     id="layer1"
     inkscape:groupmode="layer"
     inkscape:label="Layer 1">
    <g
       style="font-style:normal;font-weight:normal;font-size:12.7px;line-height:1.25;font-family:sans-serif;white-space:pre;shape-inside:url(#rect12);fill:#000000;fill-opacity:1;stroke:none"
       id="text10"
       aria-label="ENVIRONMENT | EDUCATION | GIS">
      <path
         id="path843"
         style="font-style:normal;font-variant:normal;font-weight:normal;font-stretch:normal;font-family:'.Aqua Kana';-inkscape-font-specification:'.Aqua Kana Normal';font-variant-ligatures:normal;font-variant-caps:normal;font-variant-numeric:normal;font-variant-east-asian:normal;word-spacing:-2.38125px;fill:#ffffff;fill-opacity:1"
         d="m 24.573087,28.612137 q -0.3048,-0.0508 -0.6096,-0.0635 -0.3048,-0.0254 -0.8128,-0.0254 h -3.7211 q -0.4572,0 -0.762,0.0127 -0.3048,0 -0.635,0.0254 0.0635,-0.3683 0.0762,-0.6985 0.0254,-0.3302 0.0254,-0.8128 v -6.7691 q 0,-0.4064 -0.0254,-0.7112 -0.0127,-0.3175 -0.0762,-0.7366 0.3302,0.0254 0.635,0.0381 0.3048,0 0.762,0 h 3.6195 q 0.4191,0 0.7493,-0.0127 0.3429,-0.0254 0.6731,-0.0762 v 1.0668 q -0.3302,-0.0508 -0.635,-0.0635 -0.3048,-0.0254 -0.7874,-0.0254 h -3.9116 v 3.2512 h 3.3401 q 0.4191,0 0.7366,-0.0127 0.3175,-0.0254 0.6858,-0.0762 v 1.0668 q -0.1651,-0.0254 -0.3175,-0.0381 -0.1397,-0.0254 -0.3048,-0.0254 -0.1651,-0.0127 -0.3683,-0.0127 -0.1905,-0.0127 -0.4318,-0.0127 h -3.3401 v 3.7338 h 4.0259 q 0.4445,0 0.7493,-0.0127 0.3048,-0.0254 0.6604,-0.0762 z" />
      <path
         id="path845"
         style="font-style:normal;font-variant:normal;font-weight:normal;font-stretch:normal;font-family:'.Aqua Kana';-inkscape-font-specification:'.Aqua Kana Normal';font-variant-ligatures:normal;font-variant-caps:normal;font-variant-numeric:normal;font-variant-east-asian:normal;word-spacing:-2.38125px;fill:#ffffff;fill-opacity:1"
         d="m 27.552229,18.871237 q 0.0889,0.2159 0.2286,0.4699 0.1397,0.2413 0.4191,0.6731 l 4.0132,6.0071 q 0.0508,0.0762 0.1397,0.2286 0.1016,0.1524 0.2159,0.3429 0.1143,0.1905 0.2286,0.4064 0.127,0.2032 0.2413,0.4064 -0.0762,-1.524 -0.0762,-1.6891 v -5.3848 q 0,-0.4699 -0.0254,-0.8001 -0.0127,-0.3302 -0.0762,-0.6604 h 1.1811 q -0.0635,0.3429 -0.0889,0.6604 -0.0127,0.3175 -0.0127,0.8001 v 6.7691 q 0,0.4826 0.0127,0.8001 0.0254,0.3175 0.0889,0.6223 h -1.3843 q -0.0635,-0.1397 -0.127,-0.254 -0.0635,-0.127 -0.1397,-0.254 -0.0762,-0.1397 -0.1778,-0.2921 -0.0889,-0.1524 -0.2159,-0.3429 l -4.0767,-6.1214 q -0.0381,-0.0508 -0.127,-0.2032 -0.0889,-0.1524 -0.2032,-0.3302 -0.1016,-0.1905 -0.2032,-0.3683 -0.1016,-0.1905 -0.1651,-0.3175 0.0381,0.4445 0.0508,0.8763 0.0254,0.4191 0.0254,0.6731 v 5.4229 q 0,0.508 0.0127,0.8509 0.0254,0.3429 0.0889,0.6604 h -1.1811 q 0.0635,-0.3048 0.0762,-0.6604 0.0254,-0.3556 0.0254,-0.8509 v -6.7183 q 0,-0.4445 -0.0254,-0.762 -0.0127,-0.3175 -0.0762,-0.6604 z" />
      <path
         id="path847"
         style="font-style:normal;font-variant:normal;font-weight:normal;font-stretch:normal;font-family:'.Aqua Kana';-inkscape-font-specification:'.Aqua Kana Normal';font-variant-ligatures:normal;font-variant-caps:normal;font-variant-numeric:normal;font-variant-east-asian:normal;word-spacing:-2.38125px;fill:#ffffff;fill-opacity:1"
         d="m 39.305286,26.669037 q 0.0381,0.1016 0.1143,0.3556 0.0889,0.2413 0.1905,0.5334 0.1016,-0.2921 0.1651,-0.4826 0.0635,-0.2032 0.127,-0.4064 l 2.3876,-6.5024 q 0.1778,-0.4445 0.254,-0.7366 0.0889,-0.3048 0.1143,-0.5588 h 1.3208 q -0.0762,0.127 -0.1397,0.2667 -0.0635,0.127 -0.1397,0.2921 -0.0762,0.1651 -0.1651,0.3937 -0.0889,0.2159 -0.2032,0.5207 l -2.7178,6.9977 q -0.1651,0.4191 -0.254,0.6985 -0.0889,0.2794 -0.1397,0.4826 h -1.2319 q -0.0381,-0.2032 -0.127,-0.4445 -0.0762,-0.2413 -0.2794,-0.7366 l -2.7178,-6.9977 q -0.2159,-0.5588 -0.381,-0.9144 -0.1524,-0.3556 -0.2667,-0.5588 h 1.3081 q 0.0635,0.3048 0.1524,0.6223 0.0889,0.3175 0.2159,0.6731 z" />
      <path
         id="path849"
         style="font-style:normal;font-variant:normal;font-weight:normal;font-stretch:normal;font-family:'.Aqua Kana';-inkscape-font-specification:'.Aqua Kana Normal';font-variant-ligatures:normal;font-variant-caps:normal;font-variant-numeric:normal;font-variant-east-asian:normal;word-spacing:-2.38125px;fill:#ffffff;fill-opacity:1"
         d="m 46.325805,18.871237 q -0.1143,0.635 -0.1143,1.4224 v 6.8072 q 0,0.4191 0.0254,0.762 0.0254,0.3302 0.0889,0.6604 h -1.2065 q 0.0254,-0.1778 0.0381,-0.3302 0.0254,-0.1524 0.0381,-0.3175 0.0127,-0.1651 0.0127,-0.3429 0.0127,-0.1905 0.0127,-0.4318 v -6.8072 q 0,-0.4699 -0.0254,-0.7747 -0.0254,-0.3048 -0.0762,-0.6477 z" />
      <path
         id="path851"
         style="font-style:normal;font-variant:normal;font-weight:normal;font-stretch:normal;font-family:'.Aqua Kana';-inkscape-font-specification:'.Aqua Kana Normal';font-variant-ligatures:normal;font-variant-caps:normal;font-variant-numeric:normal;font-variant-east-asian:normal;word-spacing:-2.38125px;fill:#ffffff;fill-opacity:1"
         d="m 54.695701,28.523237 q -0.0127,-0.1397 -0.0635,-0.3175 -0.0381,-0.1778 -0.127,-0.4318 -0.0889,-0.254 -0.2286,-0.5969 -0.127,-0.3429 -0.3302,-0.8255 -0.2794,-0.6477 -0.5207,-1.0795 -0.2413,-0.4318 -0.508,-0.6858 -0.254,-0.2667 -0.5461,-0.3683 -0.2921,-0.1016 -0.6731,-0.1016 h -2.3495 v 2.9718 q 0,0.4826 0.0127,0.7874 0.0254,0.3048 0.0889,0.6477 h -1.1811 q 0.0635,-0.3429 0.0762,-0.6477 0.0254,-0.3048 0.0254,-0.7747 v -6.8072 q 0,-0.4064 -0.0254,-0.7366 -0.0127,-0.3429 -0.0762,-0.7239 0.3302,0.0254 0.635,0.0381 0.3048,0 0.7493,0 h 2.794 q 1.3843,0 2.1209,0.6223 0.7366,0.6223 0.7366,1.8161 0,1.2192 -0.762,1.8669 -0.2794,0.254 -0.5715,0.3937 -0.2794,0.127 -0.8001,0.2413 0.1905,0.0635 0.3556,0.1651 0.1651,0.0889 0.3175,0.254 0.1524,0.1651 0.2921,0.4064 0.1524,0.2286 0.3302,0.5715 0.2286,0.4445 0.4699,0.9652 0.2413,0.508 0.5334,1.1684 0.1651,0.3683 0.2921,0.6604 0.1397,0.2921 0.2794,0.5207 z m -2.3368,-5.2832 q 0.4318,0 0.8001,-0.1397 0.381,-0.1524 0.635,-0.4064 0.4826,-0.4699 0.4826,-1.2827 0,-0.8128 -0.4699,-1.2319 -0.4572,-0.4318 -1.3716,-0.4318 h -3.0861 v 3.4925 z" />
      <path
         id="path853"
         style="font-style:normal;font-variant:normal;font-weight:normal;font-stretch:normal;font-family:'.Aqua Kana';-inkscape-font-specification:'.Aqua Kana Normal';font-variant-ligatures:normal;font-variant-caps:normal;font-variant-numeric:normal;font-variant-east-asian:normal;word-spacing:-2.38125px;fill:#ffffff;fill-opacity:1"
         d="m 61.573544,18.680737 q 1.0033,0 1.8161,0.3556 0.8128,0.3556 1.3843,1.016 0.5715,0.6477 0.8763,1.5748 0.3048,0.9271 0.3048,2.0701 0,1.143 -0.3175,2.0701 -0.3048,0.9271 -0.8763,1.5875 -0.5715,0.6477 -1.3843,1.0033 -0.8128,0.3556 -1.8161,0.3556 -1.0033,0 -1.8161,-0.3556 -0.8128,-0.3556 -1.3843,-1.0033 -0.5715,-0.6604 -0.8763,-1.5875 -0.3048,-0.9271 -0.3048,-2.0701 0,-1.143 0.3048,-2.0701 0.3175,-0.9271 0.889,-1.5748 0.5715,-0.6604 1.3843,-1.016 0.8128,-0.3556 1.8161,-0.3556 z m 0.0127,9.1313 q 1.3335,0 2.1971,-0.8636 0.5461,-0.5334 0.8382,-1.3716 0.2921,-0.8509 0.2921,-1.8796 0,-1.0541 -0.2794,-1.8669 -0.2794,-0.8255 -0.8382,-1.3843 -0.9017,-0.8763 -2.2225,-0.8763 -0.762,0 -1.3843,0.2921 -0.6223,0.2921 -1.0668,0.8382 -0.4318,0.5334 -0.6731,1.2954 -0.2413,0.762 -0.2413,1.6891 0,0.9398 0.2413,1.7018 0.2413,0.7493 0.6858,1.2954 0.4445,0.5461 1.0668,0.8382 0.6223,0.2921 1.3843,0.2921 z" />
      <path
         id="path855"
         style="font-style:normal;font-variant:normal;font-weight:normal;font-stretch:normal;font-family:'.Aqua Kana';-inkscape-font-specification:'.Aqua Kana Normal';font-variant-ligatures:normal;font-variant-caps:normal;font-variant-numeric:normal;font-variant-east-asian:normal;word-spacing:-2.38125px;fill:#ffffff;fill-opacity:1"
         d="m 68.951252,18.871237 q 0.0889,0.2159 0.2286,0.4699 0.1397,0.2413 0.4191,0.6731 l 4.0132,6.0071 q 0.0508,0.0762 0.1397,0.2286 0.1016,0.1524 0.2159,0.3429 0.1143,0.1905 0.2286,0.4064 0.127,0.2032 0.2413,0.4064 -0.0762,-1.524 -0.0762,-1.6891 v -5.3848 q 0,-0.4699 -0.0254,-0.8001 -0.0127,-0.3302 -0.0762,-0.6604 h 1.1811 q -0.0635,0.3429 -0.0889,0.6604 -0.0127,0.3175 -0.0127,0.8001 v 6.7691 q 0,0.4826 0.0127,0.8001 0.0254,0.3175 0.0889,0.6223 h -1.3843 q -0.0635,-0.1397 -0.127,-0.254 -0.0635,-0.127 -0.1397,-0.254 -0.0762,-0.1397 -0.1778,-0.2921 -0.0889,-0.1524 -0.2159,-0.3429 l -4.0767,-6.1214 q -0.0381,-0.0508 -0.127,-0.2032 -0.0889,-0.1524 -0.2032,-0.3302 -0.1016,-0.1905 -0.2032,-0.3683 -0.1016,-0.1905 -0.1651,-0.3175 0.0381,0.4445 0.0508,0.8763 0.0254,0.4191 0.0254,0.6731 v 5.4229 q 0,0.508 0.0127,0.8509 0.0254,0.3429 0.0889,0.6604 h -1.1811 q 0.0635,-0.3048 0.0762,-0.6604 0.0254,-0.3556 0.0254,-0.8509 v -6.7183 q 0,-0.4445 -0.0254,-0.762 -0.0127,-0.3175 -0.0762,-0.6604 z" />
      <path
         id="path857"
         style="font-style:normal;font-variant:normal;font-weight:normal;font-stretch:normal;font-family:'.Aqua Kana';-inkscape-font-specification:'.Aqua Kana Normal';font-variant-ligatures:normal;font-variant-caps:normal;font-variant-numeric:normal;font-variant-east-asian:normal;word-spacing:-2.38125px;fill:#ffffff;fill-opacity:1"
         d="m 78.951707,21.525537 q -0.1397,-0.3048 -0.2667,-0.6477 -0.127,-0.3429 -0.3048,-0.9271 0.0127,0.2032 0.0254,0.4445 0.0254,0.2413 0.0381,0.4699 0.0127,0.2286 0.0127,0.4191 0.0127,0.1905 0.0127,0.3048 v 5.4356 q 0,0.508 0.0127,0.8382 0.0254,0.3302 0.0889,0.6604 h -1.1557 q 0.0635,-0.3556 0.0762,-0.6731 0.0254,-0.3302 0.0254,-0.8255 v -6.6421 q 0,-0.4826 -0.0254,-0.8128 -0.0127,-0.3429 -0.0762,-0.6985 h 1.4732 q 0.0635,0.2921 0.1651,0.6223 0.1143,0.3175 0.254,0.635 l 3.1369,6.9977 3.1242,-6.9977 q 0.1651,-0.3683 0.2667,-0.6731 0.1016,-0.3048 0.1651,-0.5842 h 1.4605 q -0.0254,0.1778 -0.0508,0.3429 -0.0127,0.1651 -0.0254,0.3429 -0.0127,0.1778 -0.0254,0.381 0,0.2032 0,0.4445 v 6.6421 q 0,0.5207 0.0127,0.8382 0.0254,0.3175 0.0889,0.6604 h -1.1557 q 0.0635,-0.3302 0.0762,-0.6858 0.0254,-0.3556 0.0254,-0.8128 v -5.5118 q 0,-0.2667 0.0254,-0.7112 0.0254,-0.4572 0.0635,-0.8509 -0.1905,0.7874 -0.5461,1.5494 l -2.5908,5.7023 q -0.1905,0.4318 -0.3048,0.7239 -0.1016,0.2794 -0.1778,0.5969 h -0.9017 q -0.0889,-0.4826 -0.4699,-1.3335 z" />
      <path
         id="path859"
         style="font-style:normal;font-variant:normal;font-weight:normal;font-stretch:normal;font-family:'.Aqua Kana';-inkscape-font-specification:'.Aqua Kana Normal';font-variant-ligatures:normal;font-variant-caps:normal;font-variant-numeric:normal;font-variant-east-asian:normal;word-spacing:-2.38125px;fill:#ffffff;fill-opacity:1"
         d="m 95.960973,28.612137 q -0.3048,-0.0508 -0.6096,-0.0635 -0.3048,-0.0254 -0.8128,-0.0254 h -3.721099 q -0.4572,0 -0.762,0.0127 -0.3048,0 -0.635,0.0254 0.0635,-0.3683 0.0762,-0.6985 0.0254,-0.3302 0.0254,-0.8128 v -6.7691 q 0,-0.4064 -0.0254,-0.7112 -0.0127,-0.3175 -0.0762,-0.7366 0.3302,0.0254 0.635,0.0381 0.3048,0 0.762,0 h 3.619499 q 0.4191,0 0.7493,-0.0127 0.3429,-0.0254 0.6731,-0.0762 v 1.0668 q -0.3302,-0.0508 -0.635,-0.0635 -0.3048,-0.0254 -0.7874,-0.0254 h -3.911599 v 3.2512 h 3.340099 q 0.4191,0 0.7366,-0.0127 0.3175,-0.0254 0.6858,-0.0762 v 1.0668 q -0.1651,-0.0254 -0.3175,-0.0381 -0.1397,-0.0254 -0.3048,-0.0254 -0.1651,-0.0127 -0.3683,-0.0127 -0.1905,-0.0127 -0.4318,-0.0127 h -3.340099 v 3.7338 h 4.025899 q 0.4445,0 0.7493,-0.0127 0.3048,-0.0254 0.6604,-0.0762 z" />
      <path
         id="path861"
         style="font-style:normal;font-variant:normal;font-weight:normal;font-stretch:normal;font-family:'.Aqua Kana';-inkscape-font-specification:'.Aqua Kana Normal';font-variant-ligatures:normal;font-variant-caps:normal;font-variant-numeric:normal;font-variant-east-asian:normal;word-spacing:-2.38125px;fill:#ffffff;fill-opacity:1"
         d="m 98.940117,18.871237 q 0.0889,0.2159 0.2286,0.4699 0.1397,0.2413 0.4191,0.6731 l 4.013203,6.0071 q 0.0508,0.0762 0.1397,0.2286 0.1016,0.1524 0.2159,0.3429 0.1143,0.1905 0.2286,0.4064 0.127,0.2032 0.2413,0.4064 -0.0762,-1.524 -0.0762,-1.6891 v -5.3848 q 0,-0.4699 -0.0254,-0.8001 -0.0127,-0.3302 -0.0762,-0.6604 h 1.1811 q -0.0635,0.3429 -0.0889,0.6604 -0.0127,0.3175 -0.0127,0.8001 v 6.7691 q 0,0.4826 0.0127,0.8001 0.0254,0.3175 0.0889,0.6223 h -1.3843 q -0.0635,-0.1397 -0.127,-0.254 -0.0635,-0.127 -0.1397,-0.254 -0.0762,-0.1397 -0.1778,-0.2921 -0.0889,-0.1524 -0.2159,-0.3429 l -4.076703,-6.1214 q -0.0381,-0.0508 -0.127,-0.2032 -0.0889,-0.1524 -0.2032,-0.3302 -0.1016,-0.1905 -0.2032,-0.3683 -0.1016,-0.1905 -0.1651,-0.3175 0.0381,0.4445 0.0508,0.8763 0.0254,0.4191 0.0254,0.6731 v 5.4229 q 0,0.508 0.0127,0.8509 0.0254,0.3429 0.0889,0.6604 h -1.1811 q 0.0635,-0.3048 0.0762,-0.6604 0.0254,-0.3556 0.0254,-0.8509 v -6.7183 q 0,-0.4445 -0.0254,-0.762 -0.0127,-0.3175 -0.0762,-0.6604 z" />
      <path
         id="path863"
         style="font-style:normal;font-variant:normal;font-weight:normal;font-stretch:normal;font-family:'.Aqua Kana';-inkscape-font-specification:'.Aqua Kana Normal';font-variant-ligatures:normal;font-variant-caps:normal;font-variant-numeric:normal;font-variant-east-asian:normal;word-spacing:-2.38125px;fill:#ffffff;fill-opacity:1"
         d="m 111.03607,27.088137 q 0,0.4699 0.0127,0.7874 0.0254,0.3048 0.0889,0.6477 h -1.1938 q 0.0635,-0.2921 0.0762,-0.635 0.0254,-0.3556 0.0254,-0.8001 v -7.3279 h -1.9812 q -0.4826,0 -0.8128,0.0254 -0.3302,0.0127 -0.6477,0.0635 v -1.0668 q 0.3302,0.0508 0.635,0.0762 0.3048,0.0127 0.8128,0.0127 h 4.953 q 0.2794,0 0.4826,0 0.2159,-0.0127 0.381,-0.0127 0.1778,-0.0127 0.3302,-0.0254 0.1524,-0.0254 0.3048,-0.0508 v 1.0668 q -0.3175,-0.0508 -0.6477,-0.0635 -0.3175,-0.0254 -0.8509,-0.0254 h -1.9685 z" />
      <path
         id="path865"
         style="font-style:normal;font-variant:normal;font-weight:normal;font-stretch:normal;font-family:'.Aqua Kana';-inkscape-font-specification:'.Aqua Kana Normal';font-variant-ligatures:normal;font-variant-caps:normal;font-variant-numeric:normal;font-variant-east-asian:normal;word-spacing:-2.38125px;fill:#ffffff;fill-opacity:1"
         d="m 119.36628,18.871237 v 12.319 h -0.9398 v -12.319 z" />
      <path
         id="path867"
         style="font-style:normal;font-variant:normal;font-weight:normal;font-stretch:normal;font-family:'.Aqua Kana';-inkscape-font-specification:'.Aqua Kana Normal';font-variant-ligatures:normal;font-variant-caps:normal;font-variant-numeric:normal;font-variant-east-asian:normal;word-spacing:-2.38125px;fill:#ffffff;fill-opacity:1"
         d="m 130.66273,28.612137 q -0.3048,-0.0508 -0.6096,-0.0635 -0.3048,-0.0254 -0.8128,-0.0254 h -3.7211 q -0.4572,0 -0.762,0.0127 -0.3048,0 -0.635,0.0254 0.0635,-0.3683 0.0762,-0.6985 0.0254,-0.3302 0.0254,-0.8128 v -6.7691 q 0,-0.4064 -0.0254,-0.7112 -0.0127,-0.3175 -0.0762,-0.7366 0.3302,0.0254 0.635,0.0381 0.3048,0 0.762,0 h 3.6195 q 0.4191,0 0.7493,-0.0127 0.3429,-0.0254 0.6731,-0.0762 v 1.0668 q -0.3302,-0.0508 -0.635,-0.0635 -0.3048,-0.0254 -0.7874,-0.0254 h -3.9116 v 3.2512 h 3.3401 q 0.4191,0 0.7366,-0.0127 0.3175,-0.0254 0.6858,-0.0762 v 1.0668 q -0.1651,-0.0254 -0.3175,-0.0381 -0.1397,-0.0254 -0.3048,-0.0254 -0.1651,-0.0127 -0.3683,-0.0127 -0.1905,-0.0127 -0.4318,-0.0127 h -3.3401 v 3.7338 h 4.0259 q 0.4445,0 0.7493,-0.0127 0.3048,-0.0254 0.6604,-0.0762 z" />
      <path
         id="path869"
         style="font-style:normal;font-variant:normal;font-weight:normal;font-stretch:normal;font-family:'.Aqua Kana';-inkscape-font-specification:'.Aqua Kana Normal';font-variant-ligatures:normal;font-variant-caps:normal;font-variant-numeric:normal;font-variant-east-asian:normal;word-spacing:-2.38125px;fill:#ffffff;fill-opacity:1"
         d="m 132.38458,20.280937 q 0,-0.4064 -0.0254,-0.7239 -0.0127,-0.3175 -0.0762,-0.7239 0.3302,0.0254 0.635,0.0381 0.3048,0 0.762,0 h 2.1463 q 2.1336,0 3.2893,1.2446 1.1557,1.2319 1.1557,3.5179 0,1.1938 -0.3556,2.159 -0.3429,0.9525 -1.0033,1.6002 -1.1557,1.1303 -3.0861,1.1303 h -2.1463 q -0.4572,0 -0.762,0.0127 -0.3048,0 -0.635,0.0254 0.0635,-0.3683 0.0762,-0.6985 0.0254,-0.3302 0.0254,-0.8128 z m 3.4163,7.3533 q 1.524,0 2.3749,-0.9017 0.5334,-0.5334 0.8001,-1.3208 0.2667,-0.7874 0.2667,-1.778 0,-2.0066 -1.0033,-3.0099 -0.8255,-0.8636 -2.3876,-0.8636 h -2.4765 v 7.874 z" />
      <path
         id="path871"
         style="font-style:normal;font-variant:normal;font-weight:normal;font-stretch:normal;font-family:'.Aqua Kana';-inkscape-font-specification:'.Aqua Kana Normal';font-variant-ligatures:normal;font-variant-caps:normal;font-variant-numeric:normal;font-variant-east-asian:normal;word-spacing:-2.38125px;fill:#ffffff;fill-opacity:1"
         d="m 149.79389,18.871237 q -0.0635,0.3302 -0.0889,0.6477 -0.0127,0.3048 -0.0127,0.7874 v 4.7117 q 0,1.6891 -0.9779,2.7051 -0.4826,0.4826 -1.2192,0.7493 -0.7366,0.254 -1.6637,0.254 -0.9398,0 -1.6764,-0.254 -0.7366,-0.2667 -1.2192,-0.7747 -0.9398,-0.9779 -0.9398,-2.6797 v -4.6863 q 0,-0.4826 -0.0254,-0.8001 -0.0127,-0.3302 -0.0762,-0.6604 h 1.1938 q -0.0635,0.3048 -0.0889,0.635 -0.0127,0.3175 -0.0127,0.8255 v 4.6482 q 0,1.3843 0.7366,2.1336 0.7493,0.7366 2.1209,0.7366 0.7366,0 1.2954,-0.2159 0.5715,-0.2286 0.9271,-0.635 0.3048,-0.3683 0.4699,-0.889 0.1651,-0.5207 0.1651,-1.1303 v -4.6482 q 0,-0.4826 -0.0254,-0.8001 -0.0127,-0.3302 -0.0762,-0.6604 z" />
      <path
         id="path873"
         style="font-style:normal;font-variant:normal;font-weight:normal;font-stretch:normal;font-family:'.Aqua Kana';-inkscape-font-specification:'.Aqua Kana Normal';font-variant-ligatures:normal;font-variant-caps:normal;font-variant-numeric:normal;font-variant-east-asian:normal;word-spacing:-2.38125px;fill:#ffffff;fill-opacity:1"
         d="m 158.58785,21.614437 q -0.1397,-0.4064 -0.2667,-0.6477 -0.127,-0.2413 -0.3302,-0.4699 -0.7747,-0.9144 -2.1971,-0.9144 -0.7747,0 -1.397,0.2921 -0.6096,0.2794 -1.0541,0.8128 -0.4318,0.5334 -0.6731,1.2954 -0.2286,0.7493 -0.2286,1.7018 0,0.9398 0.2286,1.7018 0.2413,0.762 0.6731,1.2954 0.4445,0.5334 1.0668,0.8255 0.6223,0.2921 1.3843,0.2921 0.762,0 1.3716,-0.2667 0.6096,-0.2794 1.0033,-0.8001 0.2032,-0.2794 0.3048,-0.5461 0.1143,-0.2794 0.2032,-0.7239 l 1.0541,0.254 q -0.1651,0.5588 -0.3175,0.889 -0.1397,0.3175 -0.3683,0.6223 -0.5334,0.7239 -1.3716,1.1049 -0.8382,0.3683 -1.9177,0.3683 -0.9144,0 -1.6764,-0.2794 -0.7493,-0.2794 -1.2954,-0.8382 -0.6731,-0.6731 -1.0287,-1.6637 -0.3429,-1.0033 -0.3429,-2.1971 0,-1.2319 0.3683,-2.2352 0.3683,-1.016 1.0795,-1.7145 1.1176,-1.0795 2.9083,-1.0795 1.8161,0 2.8448,1.0287 0.1651,0.1651 0.2921,0.3302 0.1397,0.1524 0.254,0.3429 0.1143,0.1778 0.2159,0.4064 0.1143,0.2286 0.2286,0.5207 z" />
      <path
         id="path875"
         style="font-style:normal;font-variant:normal;font-weight:normal;font-stretch:normal;font-family:'.Aqua Kana';-inkscape-font-specification:'.Aqua Kana Normal';font-variant-ligatures:normal;font-variant-caps:normal;font-variant-numeric:normal;font-variant-east-asian:normal;word-spacing:-2.38125px;fill:#ffffff;fill-opacity:1"
         d="m 168.39046,28.523237 q -0.0762,-0.3429 -0.1778,-0.6731 -0.1016,-0.3302 -0.2159,-0.6223 l -0.6604,-1.6383 h -4.4323 l -0.6604,1.6383 q -0.1397,0.3683 -0.2413,0.6731 -0.0889,0.2921 -0.1524,0.6223 h -1.3208 q 0.0889,-0.1524 0.1651,-0.2794 0.0762,-0.1397 0.1397,-0.2921 0.0762,-0.1524 0.1651,-0.3556 0.0889,-0.2159 0.2159,-0.5334 l 2.8448,-7.0104 q 0.1778,-0.4445 0.2667,-0.6985 0.0889,-0.2667 0.1397,-0.4826 h 1.2827 q 0.0127,0.0889 0.0381,0.1778 0.0254,0.0889 0.0762,0.2159 0.0508,0.127 0.127,0.3175 0.0762,0.1778 0.1905,0.4699 l 2.8448,7.0104 q 0.2413,0.5715 0.381,0.889 0.1524,0.3175 0.2921,0.5715 z m -2.9972,-8.001 q -0.0127,-0.0381 -0.0254,-0.0635 -0.0127,-0.0381 -0.0381,-0.1143 -0.0254,-0.0762 -0.0762,-0.2159 -0.0508,-0.1524 -0.1397,-0.4191 -0.0508,0.1397 -0.0889,0.254 -0.0254,0.1016 -0.0508,0.1651 -0.0635,0.1524 -0.0889,0.254 -0.0254,0.1016 -0.0508,0.1397 l -1.6256,4.191 h 3.8227 z" />
      <path
         id="path877"
         style="font-style:normal;font-variant:normal;font-weight:normal;font-stretch:normal;font-family:'.Aqua Kana';-inkscape-font-specification:'.Aqua Kana Normal';font-variant-ligatures:normal;font-variant-caps:normal;font-variant-numeric:normal;font-variant-east-asian:normal;word-spacing:-2.38125px;fill:#ffffff;fill-opacity:1"
         d="m 173.09739,27.088137 q 0,0.4699 0.0127,0.7874 0.0254,0.3048 0.0889,0.6477 h -1.1938 q 0.0635,-0.2921 0.0762,-0.635 0.0254,-0.3556 0.0254,-0.8001 v -7.3279 h -1.9812 q -0.4826,0 -0.8128,0.0254 -0.3302,0.0127 -0.6477,0.0635 v -1.0668 q 0.3302,0.0508 0.635,0.0762 0.3048,0.0127 0.8128,0.0127 h 4.953 q 0.2794,0 0.4826,0 0.2159,-0.0127 0.381,-0.0127 0.1778,-0.0127 0.3302,-0.0254 0.1524,-0.0254 0.3048,-0.0508 v 1.0668 q -0.3175,-0.0508 -0.6477,-0.0635 -0.3175,-0.0254 -0.8509,-0.0254 h -1.9685 z" />
      <path
         id="path879"
         style="font-style:normal;font-variant:normal;font-weight:normal;font-stretch:normal;font-family:'.Aqua Kana';-inkscape-font-specification:'.Aqua Kana Normal';font-variant-ligatures:normal;font-variant-caps:normal;font-variant-numeric:normal;font-variant-east-asian:normal;word-spacing:-2.38125px;fill:#ffffff;fill-opacity:1"
         d="m 178.90686,18.871237 q -0.1143,0.635 -0.1143,1.4224 v 6.8072 q 0,0.4191 0.0254,0.762 0.0254,0.3302 0.0889,0.6604 h -1.2065 q 0.0254,-0.1778 0.0381,-0.3302 0.0254,-0.1524 0.0381,-0.3175 0.0127,-0.1651 0.0127,-0.3429 0.0127,-0.1905 0.0127,-0.4318 v -6.8072 q 0,-0.4699 -0.0254,-0.7747 -0.0254,-0.3048 -0.0762,-0.6477 z" />
      <path
         id="path881"
         style="font-style:normal;font-variant:normal;font-weight:normal;font-stretch:normal;font-family:'.Aqua Kana';-inkscape-font-specification:'.Aqua Kana Normal';font-variant-ligatures:normal;font-variant-caps:normal;font-variant-numeric:normal;font-variant-east-asian:normal;word-spacing:-2.38125px;fill:#ffffff;fill-opacity:1"
         d="m 184.92725,18.680737 q 1.0033,0 1.8161,0.3556 0.8128,0.3556 1.3843,1.016 0.5715,0.6477 0.8763,1.5748 0.3048,0.9271 0.3048,2.0701 0,1.143 -0.3175,2.0701 -0.3048,0.9271 -0.8763,1.5875 -0.5715,0.6477 -1.3843,1.0033 -0.8128,0.3556 -1.8161,0.3556 -1.0033,0 -1.8161,-0.3556 -0.8128,-0.3556 -1.3843,-1.0033 -0.5715,-0.6604 -0.8763,-1.5875 -0.3048,-0.9271 -0.3048,-2.0701 0,-1.143 0.3048,-2.0701 0.3175,-0.9271 0.889,-1.5748 0.5715,-0.6604 1.3843,-1.016 0.8128,-0.3556 1.8161,-0.3556 z m 0.0127,9.1313 q 1.3335,0 2.1971,-0.8636 0.5461,-0.5334 0.8382,-1.3716 0.2921,-0.8509 0.2921,-1.8796 0,-1.0541 -0.2794,-1.8669 -0.2794,-0.8255 -0.8382,-1.3843 -0.9017,-0.8763 -2.2225,-0.8763 -0.762,0 -1.3843,0.2921 -0.6223,0.2921 -1.0668,0.8382 -0.4318,0.5334 -0.6731,1.2954 -0.2413,0.762 -0.2413,1.6891 0,0.9398 0.2413,1.7018 0.2413,0.7493 0.6858,1.2954 0.4445,0.5461 1.0668,0.8382 0.6223,0.2921 1.3843,0.2921 z" />
      <path
         id="path883"
         style="font-style:normal;font-variant:normal;font-weight:normal;font-stretch:normal;font-family:'.Aqua Kana';-inkscape-font-specification:'.Aqua Kana Normal';font-variant-ligatures:normal;font-variant-caps:normal;font-variant-numeric:normal;font-variant-east-asian:normal;word-spacing:-2.38125px;fill:#ffffff;fill-opacity:1"
         d="m 192.30495,18.871237 q 0.0889,0.2159 0.2286,0.4699 0.1397,0.2413 0.4191,0.6731 l 4.0132,6.0071 q 0.0508,0.0762 0.1397,0.2286 0.1016,0.1524 0.2159,0.3429 0.1143,0.1905 0.2286,0.4064 0.127,0.2032 0.2413,0.4064 -0.0762,-1.524 -0.0762,-1.6891 v -5.3848 q 0,-0.4699 -0.0254,-0.8001 -0.0127,-0.3302 -0.0762,-0.6604 h 1.1811 q -0.0635,0.3429 -0.0889,0.6604 -0.0127,0.3175 -0.0127,0.8001 v 6.7691 q 0,0.4826 0.0127,0.8001 0.0254,0.3175 0.0889,0.6223 h -1.3843 q -0.0635,-0.1397 -0.127,-0.254 -0.0635,-0.127 -0.1397,-0.254 -0.0762,-0.1397 -0.1778,-0.2921 -0.0889,-0.1524 -0.2159,-0.3429 l -4.0767,-6.1214 q -0.0381,-0.0508 -0.127,-0.2032 -0.0889,-0.1524 -0.2032,-0.3302 -0.1016,-0.1905 -0.2032,-0.3683 -0.1016,-0.1905 -0.1651,-0.3175 0.0381,0.4445 0.0508,0.8763 0.0254,0.4191 0.0254,0.6731 v 5.4229 q 0,0.508 0.0127,0.8509 0.0254,0.3429 0.0889,0.6604 h -1.1811 q 0.0635,-0.3048 0.0762,-0.6604 0.0254,-0.3556 0.0254,-0.8509 v -6.7183 q 0,-0.4445 -0.0254,-0.762 -0.0127,-0.3175 -0.0762,-0.6604 z" />
      <path
         id="path885"
         style="font-style:normal;font-variant:normal;font-weight:normal;font-stretch:normal;font-family:'.Aqua Kana';-inkscape-font-specification:'.Aqua Kana Normal';font-variant-ligatures:normal;font-variant-caps:normal;font-variant-numeric:normal;font-variant-east-asian:normal;word-spacing:-2.38125px;fill:#ffffff;fill-opacity:1"
         d="m 204.49597,18.871237 v 12.319 h -0.9398 v -12.319 z" />
      <path
         id="path887"
         style="font-style:normal;font-variant:normal;font-weight:normal;font-stretch:normal;font-family:'.Aqua Kana';-inkscape-font-specification:'.Aqua Kana Normal';font-variant-ligatures:normal;font-variant-caps:normal;font-variant-numeric:normal;font-variant-east-asian:normal;word-spacing:-2.38125px;fill:#ffffff;fill-opacity:1"
         d="m 215.22092,24.548137 q -0.4953,0 -0.7747,0.0127 -0.2667,0.0127 -0.5334,0.0635 v -1.0287 q 0.2921,0.0508 0.5715,0.0635 0.2921,0.0127 0.8128,0.0127 h 0.3683 q 0.4445,0 0.7493,-0.0127 0.3048,-0.0127 0.5969,-0.0381 -0.0254,0.2032 -0.0508,0.3683 -0.0127,0.1651 -0.0254,0.3302 -0.0127,0.1651 -0.0127,0.3429 0,0.1778 0,0.3937 v 1.1684 q 0,0.4445 0.0127,0.7366 0.0127,0.2921 0.0762,0.6731 -0.2921,0.1651 -0.5207,0.2921 -0.2159,0.1143 -0.4191,0.2032 -0.1905,0.0889 -0.381,0.1651 -0.1905,0.0635 -0.4064,0.127 -0.4064,0.1143 -0.9144,0.1778 -0.4953,0.0635 -0.9779,0.0635 -1.8034,0 -2.8956,-0.9398 -0.7493,-0.6604 -1.1557,-1.7018 -0.4064,-1.0541 -0.4064,-2.3495 0,-1.143 0.3048,-2.0701 0.3175,-0.9271 0.889,-1.5748 0.5842,-0.6604 1.397,-1.0033 0.8255,-0.3556 1.8415,-0.3556 1.7018,0 2.7178,0.9398 0.3175,0.2921 0.508,0.6223 0.2032,0.3175 0.4191,0.8255 l -0.9906,0.3302 q -0.3429,-0.9398 -0.9906,-1.3843 -0.6477,-0.4445 -1.6764,-0.4445 -0.7874,0 -1.4097,0.2921 -0.6223,0.2794 -1.0668,0.8128 -0.4318,0.5334 -0.6731,1.2954 -0.2286,0.762 -0.2286,1.7145 0,1.0287 0.2667,1.8415 0.2667,0.8128 0.8001,1.3843 0.8509,0.9144 2.3622,0.9144 0.762,0 1.3716,-0.1651 0.6223,-0.1778 1.1938,-0.5461 v -2.5527 z" />
      <path
         id="path889"
         style="font-style:normal;font-variant:normal;font-weight:normal;font-stretch:normal;font-family:'.Aqua Kana';-inkscape-font-specification:'.Aqua Kana Normal';font-variant-ligatures:normal;font-variant-caps:normal;font-variant-numeric:normal;font-variant-east-asian:normal;word-spacing:-2.38125px;fill:#ffffff;fill-opacity:1"
         d="m 220.03303,18.871237 q -0.1143,0.635 -0.1143,1.4224 v 6.8072 q 0,0.4191 0.0254,0.762 0.0254,0.3302 0.0889,0.6604 h -1.2065 q 0.0254,-0.1778 0.0381,-0.3302 0.0254,-0.1524 0.0381,-0.3175 0.0127,-0.1651 0.0127,-0.3429 0.0127,-0.1905 0.0127,-0.4318 v -6.8072 q 0,-0.4699 -0.0254,-0.7747 -0.0254,-0.3048 -0.0762,-0.6477 z" />
      <path
         id="path891"
         style="font-style:normal;font-variant:normal;font-weight:normal;font-stretch:normal;font-family:'.Aqua Kana';-inkscape-font-specification:'.Aqua Kana Normal';font-variant-ligatures:normal;font-variant-caps:normal;font-variant-numeric:normal;font-variant-east-asian:normal;word-spacing:-2.38125px;fill:#ffffff;fill-opacity:1"
         d="m 227.55202,21.373137 q -0.0762,-0.381 -0.1778,-0.6096 -0.0889,-0.2286 -0.2667,-0.4445 -0.6223,-0.7366 -1.87959,-0.7366 -0.4953,0 -0.9017,0.127 -0.4064,0.127 -0.6985,0.3556 -0.2921,0.2286 -0.4572,0.5461 -0.1651,0.3175 -0.1651,0.6985 0,0.9906 1.1049,1.4351 0.127,0.0508 0.2159,0.0889 0.1016,0.0254 0.2667,0.0762 0.1778,0.0381 0.4826,0.1143 0.3048,0.0635 0.85089,0.1778 0.762,0.1651 1.2954,0.3937 0.5461,0.2286 0.889,0.5588 0.3429,0.3175 0.4953,0.7493 0.1651,0.4318 0.1651,0.9779 0,1.3462 -0.889,2.0828 -0.8763,0.7239 -2.52729,0.7239 -1.0795,0 -1.8542,-0.3048 -0.762,-0.3048 -1.2065,-0.9017 -0.127,-0.1651 -0.2159,-0.3302 -0.0889,-0.1651 -0.1651,-0.3556 -0.0635,-0.2032 -0.1143,-0.4318 -0.0508,-0.2413 -0.1016,-0.5588 l 1.1049,-0.1397 q 0.0254,0.4572 0.1016,0.7366 0.0889,0.2667 0.2921,0.5207 0.3175,0.4191 0.8636,0.6477 0.5461,0.2286 1.2573,0.2286 1.14299,0 1.77799,-0.4953 0.6477,-0.508 0.6477,-1.397 0,-0.9525 -0.7366,-1.3589 -0.1524,-0.0889 -0.2921,-0.1524 -0.127,-0.0635 -0.3429,-0.1143 -0.2032,-0.0635 -0.54609,-0.1397 -0.3429,-0.0889 -0.9144,-0.2159 -0.6096,-0.127 -1.0033,-0.2667 -0.3937,-0.1397 -0.7239,-0.3175 -1.1811,-0.6604 -1.1811,-2.0066 0,-0.5969 0.2286,-1.0795 0.2286,-0.4953 0.6477,-0.8382 0.4318,-0.3429 1.0287,-0.5207 0.6096,-0.1905 1.3462,-0.1905 0.95249,0 1.66369,0.3048 0.7112,0.2921 1.143,0.8636 0.1143,0.1397 0.1905,0.2794 0.0762,0.1397 0.1397,0.2921 0.0762,0.1524 0.127,0.3429 0.0508,0.1905 0.1016,0.4318 z" />
    </g>
  </g>
</svg>
