<?xml version="1.0" encoding="UTF-8" standalone="no"?>
<svg
   xmlns:dc="http://purl.org/dc/elements/1.1/"
   xmlns:cc="http://creativecommons.org/ns#"
   xmlns:rdf="http://www.w3.org/1999/02/22-rdf-syntax-ns#"
   xmlns:svg="http://www.w3.org/2000/svg"
   xmlns="http://www.w3.org/2000/svg"
   xmlns:sodipodi="http://sodipodi.sourceforge.net/DTD/sodipodi-0.dtd"
   xmlns:inkscape="http://www.inkscape.org/namespaces/inkscape"
   sodipodi:docname="featuredprojects.svg"
   inkscape:version="1.0beta2 (2b71d25, 2019-12-03)"
   id="svg1560"
   version="1.1"
   viewBox="0 0 118.59797 8.7947264"
   height="8.7947264mm"
   width="118.59797mm">
  <defs
     id="defs1554" />
  <sodipodi:namedview
     inkscape:window-maximized="0"
     inkscape:window-y="23"
     inkscape:window-x="0"
     inkscape:window-height="749"
     inkscape:window-width="1440"
     fit-margin-bottom="0"
     fit-margin-right="0"
     fit-margin-left="0"
     fit-margin-top="0"
     showgrid="false"
     inkscape:document-rotation="0"
     inkscape:current-layer="layer1"
     inkscape:document-units="mm"
     inkscape:cy="73.942125"
     inkscape:cx="203.42938"
     inkscape:zoom="0.93502088"
     inkscape:pageshadow="2"
     inkscape:pageopacity="0"
     borderopacity="1.0"
     bordercolor="#666666"
     pagecolor="#000000"
     id="base" />
  <metadata
     id="metadata1557">
    <rdf:RDF>
      <cc:Work
         rdf:about="">
        <dc:format>image/svg+xml</dc:format>
        <dc:type
           rdf:resource="http://purl.org/dc/dcmitype/StillImage" />
        <dc:title></dc:title>
      </cc:Work>
    </rdf:RDF>
  </metadata>
  <g
     transform="translate(-21.98158,-44.428854)"
     id="layer1"
     inkscape:groupmode="layer"
     inkscape:label="Layer 1">
    <g
       style="font-style:normal;font-weight:normal;font-size:10.5833px;line-height:1.25;font-family:sans-serif;fill:#ffffff;fill-opacity:1;stroke:none;stroke-width:0.264583"
       id="text1564"
       aria-label="FEATURED PROJECTS">
      <path
         inkscape:connector-curvature="0"
         id="path1634"
         style="font-style:normal;font-variant:normal;font-weight:normal;font-stretch:normal;font-family:'.Aqua Kana';-inkscape-font-specification:'.Aqua Kana';word-spacing:-2.64583px;fill:#ffffff;stroke-width:0.264583"
         d="m 22.902327,51.614918 q 0,0.211666 0,0.380999 0.01058,0.169333 0.02117,0.317499 0.01058,0.137583 0.02117,0.275166 0.02117,0.126999 0.04233,0.264582 H 21.98158 q 0.05292,-0.275165 0.0635,-0.550331 0.02117,-0.275166 0.02117,-0.687915 v -5.630315 q 0,-0.338666 -0.02117,-0.613832 -0.01058,-0.285749 -0.0635,-0.592664 0.275166,0.02117 0.529165,0.03175 0.253999,0 0.634998,0 h 2.804574 q 0.391583,0 0.645582,-0.01058 0.264582,-0.02117 0.571498,-0.0635 v 0.89958 q -0.264583,-0.04233 -0.529165,-0.05292 -0.264583,-0.02117 -0.687915,-0.02117 h -3.04799 v 2.730491 h 2.476492 q 0.380999,0 0.645582,-0.01058 0.264582,-0.02117 0.560914,-0.0635 v 0.888997 q -0.264582,-0.04233 -0.529165,-0.05292 -0.264582,-0.02117 -0.677331,-0.02117 h -2.476492 z" />
      <path
         inkscape:connector-curvature="0"
         id="path1636"
         style="font-style:normal;font-variant:normal;font-weight:normal;font-stretch:normal;font-family:'.Aqua Kana';-inkscape-font-specification:'.Aqua Kana';word-spacing:-2.64583px;fill:#ffffff;stroke-width:0.264583"
         d="m 33.798496,52.927247 q -0.254,-0.04233 -0.507999,-0.05292 -0.253999,-0.02117 -0.677331,-0.02117 h -3.100907 q -0.380999,0 -0.634998,0.01058 -0.253999,0 -0.529165,0.02117 0.05292,-0.306915 0.0635,-0.582081 0.02117,-0.275166 0.02117,-0.677331 v -5.640899 q 0,-0.338666 -0.02117,-0.592665 -0.01058,-0.264582 -0.0635,-0.613831 0.275166,0.02117 0.529165,0.03175 0.253999,0 0.634998,0 H 32.5285 q 0.349248,0 0.624414,-0.01058 0.285749,-0.02117 0.560915,-0.0635 v 0.888997 q -0.275166,-0.04233 -0.529165,-0.05292 -0.253999,-0.02117 -0.656164,-0.02117 h -3.259657 v 2.709324 h 2.783408 q 0.349249,0 0.613831,-0.01058 0.264583,-0.02117 0.571499,-0.0635 v 0.888997 q -0.137583,-0.02117 -0.264583,-0.03175 -0.116416,-0.02117 -0.253999,-0.02117 -0.137583,-0.01058 -0.306916,-0.01058 -0.158749,-0.01058 -0.359832,-0.01058 h -2.783408 v 3.11149 h 3.354906 q 0.370416,0 0.624415,-0.01058 0.253999,-0.02117 0.550332,-0.0635 z" />
      <path
         inkscape:connector-curvature="0"
         id="path1638"
         style="font-style:normal;font-variant:normal;font-weight:normal;font-stretch:normal;font-family:'.Aqua Kana';-inkscape-font-specification:'.Aqua Kana';word-spacing:-2.64583px;fill:#ffffff;stroke-width:0.264583"
         d="m 41.033007,52.853164 q -0.0635,-0.285749 -0.148166,-0.560915 -0.08467,-0.275165 -0.179916,-0.518581 l -0.550332,-1.365246 h -3.693571 l -0.550332,1.365246 q -0.116416,0.306915 -0.201083,0.560915 -0.07408,0.243416 -0.126999,0.518581 h -1.100663 q 0.07408,-0.126999 0.137582,-0.232832 0.0635,-0.116417 0.116417,-0.243416 0.0635,-0.127 0.137583,-0.296333 0.07408,-0.179916 0.179916,-0.444498 l 2.370659,-5.841982 q 0.148166,-0.370415 0.222249,-0.582081 0.07408,-0.222249 0.116416,-0.402165 h 1.068914 q 0.01058,0.07408 0.03175,0.148166 0.02117,0.07408 0.0635,0.179916 0.04233,0.105833 0.105833,0.264582 0.0635,0.148167 0.15875,0.391582 l 2.370659,5.841982 q 0.201083,0.476248 0.317499,0.740831 0.127,0.264582 0.243416,0.476248 z m -2.497659,-6.667478 q -0.01058,-0.03175 -0.02117,-0.05292 -0.01058,-0.03175 -0.03175,-0.09525 -0.02117,-0.0635 -0.0635,-0.179916 -0.04233,-0.126999 -0.116416,-0.349249 -0.04233,0.116417 -0.07408,0.211666 -0.02117,0.08467 -0.04233,0.137583 -0.05292,0.127 -0.07408,0.211666 -0.02117,0.08467 -0.04233,0.116417 l -1.354662,3.492488 h 3.185573 z" />
      <path
         inkscape:connector-curvature="0"
         id="path1640"
         style="font-style:normal;font-variant:normal;font-weight:normal;font-stretch:normal;font-family:'.Aqua Kana';-inkscape-font-specification:'.Aqua Kana';word-spacing:-2.64583px;fill:#ffffff;stroke-width:0.264583"
         d="m 44.955444,51.657251 q 0,0.391583 0.01058,0.656165 0.02117,0.253999 0.07408,0.539748 h -0.99483 q 0.05292,-0.243416 0.0635,-0.529165 0.02117,-0.296332 0.02117,-0.666748 v -6.106563 h -1.650995 q -0.402165,0 -0.677331,0.02117 -0.275166,0.01058 -0.539748,0.05292 v -0.888997 q 0.275166,0.04233 0.529165,0.0635 0.253999,0.01058 0.677331,0.01058 h 4.127487 q 0.232832,0 0.402165,0 0.179916,-0.01058 0.317499,-0.01058 0.148166,-0.01058 0.275166,-0.02117 0.127,-0.02117 0.253999,-0.04233 v 0.888997 q -0.264582,-0.04233 -0.539748,-0.05292 -0.264583,-0.02117 -0.709081,-0.02117 h -1.640412 z" />
      <path
         inkscape:connector-curvature="0"
         id="path1642"
         style="font-style:normal;font-variant:normal;font-weight:normal;font-stretch:normal;font-family:'.Aqua Kana';-inkscape-font-specification:'.Aqua Kana';word-spacing:-2.64583px;fill:#ffffff;stroke-width:0.264583"
         d="m 55.363456,44.809857 q -0.05292,0.275165 -0.07408,0.539748 -0.01058,0.253999 -0.01058,0.656164 v 3.926405 q 0,1.407578 -0.814914,2.254242 -0.402165,0.402166 -1.015996,0.624415 -0.613832,0.211666 -1.386413,0.211666 -0.783164,0 -1.396995,-0.211666 Q 50.050639,52.588582 49.648474,52.16525 48.86531,51.350336 48.86531,49.932174 v -3.905238 q 0,-0.402165 -0.02117,-0.666748 -0.01058,-0.275166 -0.0635,-0.550331 h 0.994831 q -0.05292,0.253999 -0.07408,0.529165 -0.01058,0.264582 -0.01058,0.687914 v 3.873488 q 0,1.153579 0.613832,1.777994 0.624414,0.613831 1.767411,0.613831 0.613831,0 1.079496,-0.179916 0.476249,-0.190499 0.772581,-0.529165 0.253999,-0.306915 0.391582,-0.740831 0.137583,-0.433915 0.137583,-0.941913 v -3.873488 q 0,-0.402165 -0.02117,-0.666748 -0.01058,-0.275166 -0.0635,-0.550331 z" />
      <path
         inkscape:connector-curvature="0"
         id="path1644"
         style="font-style:normal;font-variant:normal;font-weight:normal;font-stretch:normal;font-family:'.Aqua Kana';-inkscape-font-specification:'.Aqua Kana';word-spacing:-2.64583px;fill:#ffffff;stroke-width:0.264583"
         d="m 62.3319,52.853164 q -0.01058,-0.116416 -0.05292,-0.264582 -0.03175,-0.148166 -0.105833,-0.359832 -0.07408,-0.211666 -0.1905,-0.497415 -0.105833,-0.28575 -0.275165,-0.687915 -0.232833,-0.539748 -0.433916,-0.89958 -0.201082,-0.359833 -0.423332,-0.571499 -0.211666,-0.222249 -0.455082,-0.306915 -0.243415,-0.08467 -0.560914,-0.08467 h -1.957911 v 2.476492 q 0,0.402166 0.01058,0.656165 0.02117,0.253999 0.07408,0.539748 H 56.97674 q 0.05292,-0.285749 0.0635,-0.539748 0.02117,-0.253999 0.02117,-0.645581 v -5.672649 q 0,-0.338665 -0.02117,-0.613831 -0.01058,-0.285749 -0.0635,-0.603248 0.275165,0.02117 0.529165,0.03175 0.253999,0 0.624414,0 h 2.328326 q 1.15358,0 1.767411,0.518581 0.613832,0.518582 0.613832,1.513412 0,1.015997 -0.634998,1.555745 -0.232833,0.211666 -0.476249,0.328082 -0.232832,0.105833 -0.666748,0.201083 0.15875,0.05292 0.296333,0.137583 0.137583,0.07408 0.264582,0.211666 0.127,0.137583 0.243416,0.338666 0.127,0.190499 0.275166,0.476248 0.190499,0.370416 0.391582,0.804331 0.201083,0.423332 0.444499,0.973663 0.137582,0.306916 0.243415,0.550332 0.116417,0.243416 0.232833,0.433915 z m -1.947327,-4.402652 q 0.359832,0 0.666748,-0.116417 0.317499,-0.126999 0.529165,-0.338665 0.402165,-0.391582 0.402165,-1.068913 0,-0.677332 -0.391582,-1.026581 -0.380998,-0.359832 -1.142996,-0.359832 h -2.571742 v 2.910408 z" />
      <path
         inkscape:connector-curvature="0"
         id="path1646"
         style="font-style:normal;font-variant:normal;font-weight:normal;font-stretch:normal;font-family:'.Aqua Kana';-inkscape-font-specification:'.Aqua Kana';word-spacing:-2.64583px;fill:#ffffff;stroke-width:0.264583"
         d="m 70.116576,52.927247 q -0.253999,-0.04233 -0.507998,-0.05292 -0.253999,-0.02117 -0.677331,-0.02117 H 65.83034 q -0.380999,0 -0.634998,0.01058 -0.253999,0 -0.529165,0.02117 0.05292,-0.306915 0.0635,-0.582081 0.02117,-0.275166 0.02117,-0.677331 v -5.640899 q 0,-0.338666 -0.02117,-0.592665 -0.01058,-0.264582 -0.0635,-0.613831 0.275166,0.02117 0.529165,0.03175 0.253999,0 0.634998,0 h 3.01624 q 0.349249,0 0.624415,-0.01058 0.285749,-0.02117 0.560915,-0.0635 v 0.888997 q -0.275166,-0.04233 -0.529165,-0.05292 -0.253999,-0.02117 -0.656165,-0.02117 h -3.259656 v 2.709324 h 2.783408 q 0.349249,0 0.613831,-0.01058 0.264583,-0.02117 0.571499,-0.0635 v 0.888997 q -0.137583,-0.02117 -0.264583,-0.03175 -0.116416,-0.02117 -0.253999,-0.02117 -0.137583,-0.01058 -0.306916,-0.01058 -0.158749,-0.01058 -0.359832,-0.01058 h -2.783408 v 3.11149 h 3.354906 q 0.370416,0 0.624415,-0.01058 0.253999,-0.02117 0.550331,-0.0635 z" />
      <path
         inkscape:connector-curvature="0"
         id="path1648"
         style="font-style:normal;font-variant:normal;font-weight:normal;font-stretch:normal;font-family:'.Aqua Kana';-inkscape-font-specification:'.Aqua Kana';word-spacing:-2.64583px;fill:#ffffff;stroke-width:0.264583"
         d="m 71.551442,45.984603 q 0,-0.338666 -0.02117,-0.603248 -0.01058,-0.264583 -0.0635,-0.603248 0.275166,0.02117 0.529165,0.03175 0.253999,0 0.634998,0 h 1.788578 q 1.777994,0 2.741074,1.037163 0.963081,1.02658 0.963081,2.931574 0,0.99483 -0.296333,1.799161 -0.285749,0.793747 -0.83608,1.333496 -0.963081,0.941913 -2.571742,0.941913 h -1.788578 q -0.380999,0 -0.634998,0.01058 -0.253999,0 -0.529165,0.02117 0.05292,-0.306915 0.0635,-0.582081 0.02117,-0.275166 0.02117,-0.677331 z m 2.846907,6.12773 q 1.269996,0 1.979077,-0.751414 0.444499,-0.444499 0.666748,-1.100663 0.222249,-0.656165 0.222249,-1.481662 0,-1.672161 -0.83608,-2.508242 -0.687915,-0.719664 -1.989661,-0.719664 h -2.063743 v 6.561645 z" />
      <path
         inkscape:connector-curvature="0"
         id="path1650"
         style="font-weight:bold;word-spacing:-2.64583px;fill:#ffffff"
         d="m 80.312257,53.043664 q 0.05292,-0.317499 0.0635,-0.624415 0.02117,-0.306916 0.02117,-0.740831 v -5.725565 q 0,-0.380999 -0.02117,-0.687915 -0.01058,-0.317499 -0.0635,-0.677331 0.338665,0.02117 0.624414,0.03175 0.296333,0 0.719665,0 h 2.211909 q 0.772581,0 1.322913,0.1905 0.550332,0.179916 0.93133,0.560914 0.328083,0.317499 0.486832,0.783165 0.169333,0.465665 0.169333,1.037163 0,1.206496 -0.709081,1.947327 -0.391582,0.391582 -0.941914,0.582082 -0.550331,0.179916 -1.312329,0.179916 h -2.02141 v 1.767411 q 0,0.433915 0.01058,0.751414 0.02117,0.317499 0.07408,0.624415 z m 3.503072,-4.36032 q 0.730248,0 1.111246,-0.370415 0.391583,-0.380999 0.391583,-1.079497 0,-0.645581 -0.349249,-1.015997 -0.179916,-0.201082 -0.455082,-0.285749 -0.275166,-0.09525 -0.698498,-0.09525 h -2.02141 v 2.846907 z" />
      <path
         inkscape:connector-curvature="0"
         id="path1652"
         style="font-weight:bold;word-spacing:-2.64583px;fill:#ffffff"
         d="m 93.21264,53.043664 q -0.02117,-0.1905 -0.15875,-0.603248 -0.126999,-0.412749 -0.391582,-1.09008 -0.211666,-0.550332 -0.402165,-0.899581 -0.190499,-0.359832 -0.391582,-0.571498 -0.1905,-0.211666 -0.423332,-0.296332 -0.232833,-0.08467 -0.539748,-0.08467 h -1.576912 v 2.158993 q 0,0.476249 0.01058,0.783165 0.02117,0.296332 0.07408,0.603248 h -1.576911 q 0.02117,-0.169333 0.03175,-0.306916 0.02117,-0.148166 0.03175,-0.306916 0.01058,-0.158749 0.01058,-0.338665 0.01058,-0.179916 0.01058,-0.423332 v -5.704399 q 0,-0.211666 -0.01058,-0.380999 0,-0.169332 -0.01058,-0.328082 -0.01058,-0.158749 -0.03175,-0.317499 -0.01058,-0.158749 -0.03175,-0.349249 0.328082,0.02117 0.624414,0.03175 0.296333,0 0.730248,0 h 2.539992 q 1.217079,0 1.873244,0.571498 0.656165,0.571499 0.656165,1.629829 0,1.02658 -0.539749,1.576911 -0.222249,0.232833 -0.476248,0.359832 -0.243416,0.127 -0.698498,0.254 0.253999,0.08467 0.433915,0.211666 0.179916,0.126999 0.380999,0.433915 0.201083,0.306916 0.455082,0.857247 0.253999,0.550332 0.645581,1.481662 0.03175,0.07408 0.08467,0.211666 0.0635,0.127 0.137583,0.275166 0.07408,0.148166 0.148166,0.306916 0.07408,0.148166 0.126999,0.253999 z m -1.756828,-4.751902 q 0.296333,0 0.560915,-0.09525 0.264583,-0.105833 0.444499,-0.285749 0.338665,-0.338665 0.338665,-0.93133 0,-1.15358 -1.301746,-1.15358 h -2.169576 v 2.465909 z" />
      <path
         inkscape:connector-curvature="0"
         id="path1654"
         style="font-weight:bold;word-spacing:-2.64583px;fill:#ffffff"
         d="m 99.683662,44.450024 q 1.725078,0 2.783408,1.05833 0.58208,0.582082 0.87841,1.428746 0.30692,0.836081 0.30692,1.873244 0,1.005413 -0.28575,1.820327 -0.27517,0.814914 -0.79375,1.396996 -0.51858,0.571498 -1.24883,0.888997 -0.73024,0.306916 -1.629825,0.306916 -0.89958,0 -1.629828,-0.306916 -0.730248,-0.317499 -1.248829,-0.888997 -0.507999,-0.582082 -0.793748,-1.396996 -0.275166,-0.814914 -0.275166,-1.820327 0,-1.02658 0.306916,-1.873244 0.306916,-0.857247 0.89958,-1.428746 0.550332,-0.539748 1.21708,-0.793747 0.666748,-0.264583 1.513412,-0.264583 z m 0.03175,7.514143 q 0.571498,0 1.026578,-0.211666 0.45508,-0.222249 0.77258,-0.634998 0.3175,-0.412749 0.48683,-0.99483 0.16934,-0.582081 0.16934,-1.312329 0,-0.804331 -0.22225,-1.428746 -0.21167,-0.634998 -0.61383,-1.037163 -0.66675,-0.645581 -1.629832,-0.645581 -0.571498,0 -1.037163,0.222249 -0.455082,0.211666 -0.783164,0.624415 -0.317499,0.402165 -0.497415,0.984247 -0.169333,0.571498 -0.169333,1.291162 0,0.793748 0.222249,1.439329 0.22225,0.645581 0.634998,1.05833 0.666748,0.645581 1.640412,0.645581 z" />
      <path
         inkscape:connector-curvature="0"
         id="path1656"
         style="font-weight:bold;word-spacing:-2.64583px;fill:#ffffff"
         d="m 109.65198,44.619357 q -0.0212,0.15875 -0.0423,0.306916 -0.0106,0.137583 -0.0212,0.296332 -0.0106,0.148166 -0.0212,0.338666 0,0.179916 0,0.423332 v 4.741318 q 0,1.111247 -0.5715,1.735661 -0.33866,0.370416 -0.86783,0.550332 -0.51858,0.190499 -1.18533,0.190499 -0.71966,0 -1.24883,-0.201082 -0.51858,-0.1905 -0.89958,-0.592665 -0.17991,-0.201083 -0.30691,-0.402166 -0.127,-0.211666 -0.29633,-0.603248 l 1.39699,-0.507998 q 0.11642,0.370415 0.24342,0.560915 0.127,0.179916 0.32808,0.306915 0.14817,0.09525 0.35983,0.148167 0.22225,0.05292 0.43392,0.05292 0.28575,0 0.52916,-0.08467 0.24342,-0.09525 0.39158,-0.253999 0.254,-0.28575 0.254,-0.920748 v -4.720151 q 0,-0.476249 -0.0212,-0.761998 -0.0106,-0.285749 -0.0635,-0.603248 z" />
      <path
         inkscape:connector-curvature="0"
         id="path1658"
         style="font-weight:bold;word-spacing:-2.64583px;fill:#ffffff"
         d="m 117.16397,53.117747 q -0.28575,-0.04233 -0.58208,-0.0635 -0.29634,-0.01058 -0.78317,-0.01058 h -3.30199 q -0.24341,0 -0.42333,0 -0.17992,0 -0.32808,0 -0.14817,0.01058 -0.29633,0.01058 -0.13759,0.01058 -0.29634,0.02117 0.0423,-0.317499 0.0635,-0.624415 0.0212,-0.306916 0.0212,-0.772581 v -5.725565 q 0,-0.412749 -0.0212,-0.698498 -0.0106,-0.296332 -0.0635,-0.666748 0.15875,0.01058 0.29634,0.02117 0.13758,0 0.28575,0.01058 0.15874,0 0.33866,0 0.17992,0 0.42333,0 h 3.19616 q 0.40216,0 0.6985,-0.01058 0.29633,-0.02117 0.66674,-0.0635 v 1.396996 q -0.14816,-0.02117 -0.29633,-0.03175 -0.14816,-0.02117 -0.30691,-0.02117 -0.15875,-0.01058 -0.34925,-0.01058 -0.17992,-0.01058 -0.41275,-0.01058 h -3.04799 v 2.180159 h 2.57174 q 0.41275,0 0.71967,-0.01058 0.30691,-0.02117 0.65616,-0.0635 v 1.386412 q -0.15875,-0.02117 -0.30692,-0.03175 -0.13758,-0.02117 -0.29633,-0.02117 -0.15875,-0.01058 -0.34925,-0.01058 -0.17991,-0.01058 -0.42333,-0.01058 h -2.58232 v 2.497659 h 3.17499 q 0.44449,0 0.73024,-0.01058 0.28575,-0.02117 0.62442,-0.0635 z" />
      <path
         inkscape:connector-curvature="0"
         id="path1660"
         style="font-weight:bold;word-spacing:-2.64583px;fill:#ffffff"
         d="m 125.60465,50.471922 q -0.14817,0.571498 -0.30692,0.93133 -0.15875,0.349249 -0.40217,0.656165 -0.45508,0.560915 -1.19591,0.857247 -0.73025,0.296333 -1.69333,0.296333 -1.73566,0 -2.7199,-1.015997 -0.56092,-0.582082 -0.85725,-1.439329 -0.29633,-0.857247 -0.29633,-1.883827 0,-1.05833 0.3175,-1.936744 0.31749,-0.878414 0.92074,-1.481662 0.47625,-0.486832 1.16417,-0.740831 0.68791,-0.264583 1.48166,-0.264583 0.62441,0 1.10066,0.127 0.48683,0.116416 0.93133,0.380999 0.71966,0.444498 1.12183,1.153579 0.0952,0.169333 0.15875,0.338666 0.0741,0.169333 0.16933,0.476249 l -1.47108,0.338665 q -0.11641,-0.349249 -0.21166,-0.539748 -0.0847,-0.1905 -0.24342,-0.370416 -0.53975,-0.656164 -1.54516,-0.656164 -0.56091,0 -1.016,0.211666 -0.44449,0.211666 -0.76199,0.624414 -0.30692,0.402166 -0.47625,0.984247 -0.15875,0.571498 -0.15875,1.301746 0,0.730248 0.16933,1.312329 0.16933,0.582082 0.47625,0.99483 0.3175,0.402166 0.762,0.624415 0.4445,0.211666 1.00541,0.211666 0.56092,0 1.00541,-0.201083 0.45509,-0.211666 0.70908,-0.582081 0.13759,-0.201083 0.21167,-0.402165 0.0741,-0.201083 0.13758,-0.571499 z" />
      <path
         inkscape:connector-curvature="0"
         id="path1662"
         style="font-weight:bold;word-spacing:-2.64583px;fill:#ffffff"
         d="m 130.51497,51.667835 q 0,0.433915 0.0106,0.740831 0.0212,0.306915 0.0741,0.634998 h -1.59807 q 0.0529,-0.338666 0.0635,-0.634998 0.0212,-0.306916 0.0212,-0.740831 v -5.778482 h -1.42874 q -0.47625,0 -0.8255,0.02117 -0.34925,0.01058 -0.62442,0.05292 v -1.418162 q 0.28575,0.04233 0.635,0.0635 0.34925,0.01058 0.80433,0.01058 h 4.19099 q 0.28575,0 0.508,0 0.22225,-0.01058 0.40216,-0.01058 0.17992,-0.01058 0.33867,-0.02117 0.15875,-0.02117 0.30691,-0.04233 v 1.418162 q -0.29633,-0.04233 -0.64558,-0.05292 -0.33866,-0.02117 -0.91016,-0.02117 h -1.32291 z" />
      <path
         inkscape:connector-curvature="0"
         id="path1664"
         style="font-weight:bold;word-spacing:-2.64583px;fill:#ffffff"
         d="m 135.55245,50.419005 q 0.0318,0.359833 0.0847,0.560915 0.0635,0.1905 0.21167,0.370416 0.23283,0.306915 0.62441,0.465665 0.40217,0.158749 0.92075,0.158749 0.79375,0 1.23824,-0.328082 0.45509,-0.338665 0.45509,-0.941914 0,-0.328082 -0.14817,-0.582081 -0.13758,-0.253999 -0.381,-0.391582 -0.11642,-0.0635 -0.22225,-0.105833 -0.0952,-0.04233 -0.27516,-0.08467 -0.16934,-0.05292 -0.48684,-0.127 -0.30691,-0.07408 -0.85724,-0.201083 -0.59267,-0.137583 -0.9525,-0.275166 -0.35983,-0.148166 -0.64558,-0.370415 -0.81492,-0.634998 -0.81492,-1.714495 0,-0.550331 0.21167,-0.99483 0.21167,-0.455082 0.60325,-0.772581 0.40216,-0.317499 0.9525,-0.486831 0.55033,-0.169333 1.23824,-0.169333 0.91016,0 1.57691,0.275166 0.66675,0.264582 1.05833,0.793747 0.20109,0.264583 0.30692,0.539748 0.11641,0.264583 0.21166,0.687915 l -1.51341,0.179916 q -0.0529,-0.275166 -0.11641,-0.433915 -0.0635,-0.15875 -0.20109,-0.317499 -0.42333,-0.507999 -1.32291,-0.507999 -0.6985,0 -1.12183,0.317499 -0.42333,0.317499 -0.42333,0.836081 0,0.645581 0.71966,0.96308 0.0847,0.03175 0.15875,0.0635 0.0847,0.02117 0.23284,0.0635 0.14816,0.04233 0.40216,0.105833 0.254,0.05292 0.6985,0.148166 0.635,0.137583 1.03716,0.296332 0.40217,0.148167 0.68792,0.349249 0.45508,0.338666 0.66674,0.783164 0.21167,0.433916 0.21167,1.037164 0,1.132413 -0.66675,1.799161 -0.83608,0.804331 -2.52941,0.804331 -0.65616,0 -1.24883,-0.148167 -0.59266,-0.148166 -0.97366,-0.402165 -0.62441,-0.423332 -0.93133,-1.206496 -0.0741,-0.179916 -0.11642,-0.359832 -0.0318,-0.1905 -0.0847,-0.518582 z" />
    </g>
  </g>
</svg>
