<?xml version="1.0" encoding="UTF-8" standalone="no"?>
<svg
   xmlns:dc="http://purl.org/dc/elements/1.1/"
   xmlns:cc="http://creativecommons.org/ns#"
   xmlns:rdf="http://www.w3.org/1999/02/22-rdf-syntax-ns#"
   xmlns:svg="http://www.w3.org/2000/svg"
   xmlns="http://www.w3.org/2000/svg"
   xmlns:sodipodi="http://sodipodi.sourceforge.net/DTD/sodipodi-0.dtd"
   xmlns:inkscape="http://www.inkscape.org/namespaces/inkscape"
   sodipodi:docname="recentexpeditions.svg"
   inkscape:version="1.0beta2 (2b71d25, 2019-12-03)"
   id="svg1560"
   version="1.1"
   viewBox="0 0 121.84321 8.7947216"
   height="8.7947216mm"
   width="121.84321mm">
  <defs
     id="defs1554">
    <rect
       id="rect1705"
       height="14.714467"
       width="139.78743"
       y="45.277767"
       x="28.772873" />
  </defs>
  <sodipodi:namedview
     inkscape:window-maximized="0"
     inkscape:window-y="23"
     inkscape:window-x="0"
     inkscape:window-height="749"
     inkscape:window-width="1440"
     fit-margin-bottom="0"
     fit-margin-right="0"
     fit-margin-left="0"
     fit-margin-top="0"
     showgrid="false"
     inkscape:document-rotation="0"
     inkscape:current-layer="layer1"
     inkscape:document-units="mm"
     inkscape:cy="62.615261"
     inkscape:cx="174.67938"
     inkscape:zoom="0.93502088"
     inkscape:pageshadow="2"
     inkscape:pageopacity="0"
     borderopacity="1.0"
     bordercolor="#666666"
     pagecolor="#000000"
     id="base" />
  <metadata
     id="metadata1557">
    <rdf:RDF>
      <cc:Work
         rdf:about="">
        <dc:format>image/svg+xml</dc:format>
        <dc:type
           rdf:resource="http://purl.org/dc/dcmitype/StillImage" />
        <dc:title></dc:title>
      </cc:Work>
    </rdf:RDF>
  </metadata>
  <g
     transform="translate(-29.588352,-47.425754)"
     id="layer1"
     inkscape:groupmode="layer"
     inkscape:label="Layer 1">
    <g
       style="font-style:normal;font-weight:normal;font-size:10.58329999999999949px;line-height:1.25;font-family:sans-serif;white-space:pre;shape-inside:url(#rect1705);fill:#ffffff;fill-opacity:1;stroke:none"
       id="text1703"
       aria-label="RECENT EXPEDITIONS">
      <path
         id="path1713"
         style="font-style:normal;font-variant:normal;font-weight:normal;font-stretch:normal;font-size:10.58329999999999949px;font-family:'.Aqua Kana';-inkscape-font-specification:'.Aqua Kana Normal';font-variant-ligatures:normal;font-variant-caps:normal;font-variant-numeric:normal;font-variant-east-asian:normal;word-spacing:-2.64583000000000013px;fill:#ffffff"
         d="m 34.943501,55.85006 q -0.01058,-0.116416 -0.05292,-0.264582 -0.03175,-0.148167 -0.105833,-0.359833 -0.07408,-0.211666 -0.1905,-0.497415 -0.105833,-0.285749 -0.275165,-0.687914 -0.232833,-0.539748 -0.433916,-0.899581 -0.201082,-0.359832 -0.423332,-0.571498 -0.211666,-0.222249 -0.455082,-0.306915 -0.243416,-0.08467 -0.560915,-0.08467 h -1.95791 v 2.476492 q 0,0.402166 0.01058,0.656165 0.02117,0.253999 0.07408,0.539748 h -0.984246 q 0.05292,-0.285749 0.0635,-0.539748 0.02117,-0.253999 0.02117,-0.645581 v -5.672649 q 0,-0.338666 -0.02117,-0.613831 -0.01058,-0.28575 -0.0635,-0.603249 0.275165,0.02117 0.529165,0.03175 0.253999,0 0.624414,0 h 2.328326 q 1.15358,0 1.767411,0.518582 0.613832,0.518582 0.613832,1.513412 0,1.015997 -0.634998,1.555745 -0.232833,0.211666 -0.476249,0.328082 -0.232832,0.105833 -0.666748,0.201083 0.15875,0.05292 0.296333,0.137583 0.137583,0.07408 0.264582,0.211666 0.127,0.137583 0.243416,0.338665 0.127,0.1905 0.275166,0.476249 0.190499,0.370415 0.391582,0.804331 0.201083,0.423332 0.444498,0.973663 0.137583,0.306916 0.243416,0.550332 0.116417,0.243416 0.232833,0.433915 z m -1.947327,-4.402653 q 0.359832,0 0.666748,-0.116416 0.317499,-0.126999 0.529165,-0.338665 0.402165,-0.391583 0.402165,-1.068914 0,-0.677331 -0.391582,-1.02658 Q 33.821671,48.537 33.059674,48.537 h -2.571742 v 2.910407 z" />
      <path
         id="path1715"
         style="font-style:normal;font-variant:normal;font-weight:normal;font-stretch:normal;font-size:10.58329999999999949px;font-family:'.Aqua Kana';-inkscape-font-specification:'.Aqua Kana Normal';font-variant-ligatures:normal;font-variant-caps:normal;font-variant-numeric:normal;font-variant-east-asian:normal;word-spacing:-2.64583000000000013px;fill:#ffffff"
         d="m 42.72818,55.924143 q -0.253999,-0.04233 -0.507999,-0.05292 -0.253999,-0.02117 -0.677331,-0.02117 h -3.100907 q -0.380998,0 -0.634998,0.01058 -0.253999,0 -0.529165,0.02117 0.05292,-0.306916 0.0635,-0.582081 0.02117,-0.275166 0.02117,-0.677332 v -5.640898 q 0,-0.338666 -0.02117,-0.592665 -0.01058,-0.264583 -0.0635,-0.613832 0.275166,0.02117 0.529165,0.03175 0.254,0 0.634998,0 h 3.016241 q 0.349249,0 0.624414,-0.01058 0.28575,-0.02117 0.560915,-0.0635 v 0.888997 q -0.275165,-0.04233 -0.529165,-0.05292 -0.253999,-0.02117 -0.656164,-0.02117 h -3.259657 v 2.709325 h 2.783408 q 0.349249,0 0.613832,-0.01058 0.264582,-0.02117 0.571498,-0.0635 v 0.888997 q -0.137583,-0.02117 -0.264583,-0.03175 -0.116416,-0.02117 -0.253999,-0.02117 -0.137583,-0.01058 -0.306916,-0.01058 -0.158749,-0.01058 -0.359832,-0.01058 h -2.783408 v 3.11149 h 3.354906 q 0.370416,0 0.624415,-0.01058 0.253999,-0.02117 0.550332,-0.0635 z" />
      <path
         id="path1717"
         style="font-style:normal;font-variant:normal;font-weight:normal;font-stretch:normal;font-size:10.58329999999999949px;font-family:'.Aqua Kana';-inkscape-font-specification:'.Aqua Kana Normal';font-variant-ligatures:normal;font-variant-caps:normal;font-variant-numeric:normal;font-variant-east-asian:normal;word-spacing:-2.64583000000000013px;fill:#ffffff"
         d="m 49.793359,50.092745 q -0.116416,-0.338666 -0.222249,-0.539748 -0.105833,-0.201083 -0.275166,-0.391582 -0.645581,-0.761998 -1.830911,-0.761998 -0.645581,0 -1.164163,0.243416 -0.507998,0.232833 -0.878414,0.677331 -0.359832,0.444499 -0.560915,1.079497 -0.190499,0.624414 -0.190499,1.418162 0,0.783164 0.190499,1.418162 0.201083,0.634998 0.560915,1.079497 0.370416,0.444498 0.888997,0.687914 0.518582,0.243416 1.15358,0.243416 0.634998,0 1.142996,-0.222249 0.507999,-0.232833 0.836081,-0.666748 0.169333,-0.232833 0.253999,-0.455082 0.09525,-0.232833 0.169333,-0.603248 l 0.878414,0.211666 q -0.137583,0.465665 -0.264583,0.740831 -0.116416,0.264582 -0.306915,0.518582 -0.444499,0.603248 -1.142997,0.920747 -0.698497,0.306915 -1.598078,0.306915 -0.761997,0 -1.396995,-0.232832 -0.624415,-0.232833 -1.079497,-0.698498 -0.560915,-0.560915 -0.857247,-1.386412 -0.285749,-0.836081 -0.285749,-1.830911 0,-1.02658 0.306915,-1.862661 0.306916,-0.846664 0.899581,-1.428745 0.93133,-0.899581 2.423575,-0.899581 1.513412,0 2.370659,0.857247 0.137583,0.137583 0.243416,0.275166 0.116417,0.127 0.211666,0.285749 0.09525,0.148167 0.179916,0.338666 0.09525,0.190499 0.1905,0.433915 z" />
      <path
         id="path1719"
         style="font-style:normal;font-variant:normal;font-weight:normal;font-stretch:normal;font-size:10.58329999999999949px;font-family:'.Aqua Kana';-inkscape-font-specification:'.Aqua Kana Normal';font-variant-ligatures:normal;font-variant-caps:normal;font-variant-numeric:normal;font-variant-east-asian:normal;word-spacing:-2.64583000000000013px;fill:#ffffff"
         d="m 57.528262,55.924143 q -0.253999,-0.04233 -0.507998,-0.05292 -0.253999,-0.02117 -0.677331,-0.02117 h -3.100907 q -0.380999,0 -0.634998,0.01058 -0.253999,0 -0.529165,0.02117 0.05292,-0.306916 0.0635,-0.582081 0.02117,-0.275166 0.02117,-0.677332 v -5.640898 q 0,-0.338666 -0.02117,-0.592665 -0.01058,-0.264583 -0.0635,-0.613832 0.275166,0.02117 0.529165,0.03175 0.253999,0 0.634998,0 h 3.01624 q 0.349249,0 0.624415,-0.01058 0.285749,-0.02117 0.560915,-0.0635 v 0.888997 q -0.275166,-0.04233 -0.529165,-0.05292 -0.253999,-0.02117 -0.656165,-0.02117 H 52.99861 v 2.709325 h 2.783408 q 0.349249,0 0.613831,-0.01058 0.264583,-0.02117 0.571498,-0.0635 v 0.888997 q -0.137582,-0.02117 -0.264582,-0.03175 -0.116416,-0.02117 -0.253999,-0.02117 -0.137583,-0.01058 -0.306916,-0.01058 -0.158749,-0.01058 -0.359832,-0.01058 H 52.99861 v 3.11149 h 3.354906 q 0.370416,0 0.624415,-0.01058 0.253999,-0.02117 0.550331,-0.0635 z" />
      <path
         id="path1721"
         style="font-style:normal;font-variant:normal;font-weight:normal;font-stretch:normal;font-size:10.58329999999999949px;font-family:'.Aqua Kana';-inkscape-font-specification:'.Aqua Kana Normal';font-variant-ligatures:normal;font-variant-caps:normal;font-variant-numeric:normal;font-variant-east-asian:normal;word-spacing:-2.64583000000000013px;fill:#ffffff"
         d="m 60.010872,47.806752 q 0.07408,0.179916 0.1905,0.391582 0.116416,0.201083 0.349249,0.560915 l 3.344322,5.005901 q 0.04233,0.0635 0.116417,0.190499 0.08467,0.127 0.179916,0.28575 0.09525,0.158749 0.190499,0.338665 0.105833,0.169333 0.201083,0.338666 -0.0635,-1.269996 -0.0635,-1.407579 v -4.487319 q 0,-0.391582 -0.02117,-0.666748 -0.01058,-0.275166 -0.0635,-0.550332 h 0.984246 q -0.05292,0.285749 -0.07408,0.550332 -0.01058,0.264582 -0.01058,0.666748 v 5.640899 q 0,0.402165 0.01058,0.666747 0.02117,0.264583 0.07408,0.518582 h -1.153579 q -0.05292,-0.116416 -0.105833,-0.211666 -0.05292,-0.105833 -0.116416,-0.211666 -0.0635,-0.116416 -0.148167,-0.243416 -0.07408,-0.126999 -0.179916,-0.285749 l -3.397239,-5.10115 q -0.03175,-0.04233 -0.105833,-0.169333 -0.07408,-0.127 -0.169333,-0.275166 -0.08467,-0.158749 -0.169333,-0.306916 -0.08467,-0.158749 -0.137582,-0.264582 0.03175,0.370415 0.04233,0.730248 0.02117,0.349248 0.02117,0.560914 v 4.519069 q 0,0.423332 0.01058,0.709082 0.02117,0.285749 0.07408,0.550331 h -0.984247 q 0.05292,-0.253999 0.0635,-0.550331 0.02117,-0.296333 0.02117,-0.709082 v -5.598565 q 0,-0.370416 -0.02117,-0.634998 -0.01058,-0.264583 -0.0635,-0.550332 z" />
      <path
         id="path1723"
         style="font-style:normal;font-variant:normal;font-weight:normal;font-stretch:normal;font-size:10.58329999999999949px;font-family:'.Aqua Kana';-inkscape-font-specification:'.Aqua Kana Normal';font-variant-ligatures:normal;font-variant-caps:normal;font-variant-numeric:normal;font-variant-east-asian:normal;word-spacing:-2.64583000000000013px;fill:#ffffff"
         d="m 70.090807,54.654147 q 0,0.391582 0.01058,0.656165 0.02117,0.253999 0.07408,0.539748 h -0.99483 q 0.05292,-0.243416 0.0635,-0.529165 0.02117,-0.296332 0.02117,-0.666748 v -6.106564 h -1.650995 q -0.402166,0 -0.677331,0.02117 -0.275166,0.01058 -0.539749,0.05292 v -0.888997 q 0.275166,0.04233 0.529165,0.0635 0.254,0.01058 0.677332,0.01058 h 4.127486 q 0.232833,0 0.402166,0 0.179916,-0.01058 0.317499,-0.01058 0.148166,-0.01058 0.275166,-0.02117 0.126999,-0.02117 0.253999,-0.04233 v 0.888997 q -0.264583,-0.04233 -0.539748,-0.05292 -0.264583,-0.02117 -0.709082,-0.02117 h -1.640411 z" />
      <path
         id="path1725"
         style="font-weight:bold;word-spacing:-2.64583000000000013px;fill:#ffffff"
         d="m 80.763232,56.114643 q -0.285749,-0.04233 -0.582081,-0.0635 -0.296333,-0.01058 -0.783165,-0.01058 h -3.301989 q -0.243416,0 -0.423332,0 -0.179916,0 -0.328082,0 -0.148167,0.01058 -0.296333,0.01058 -0.137583,0.01058 -0.296332,0.02117 0.04233,-0.317499 0.0635,-0.624414 0.02117,-0.306916 0.02117,-0.772581 v -5.725565 q 0,-0.412749 -0.02117,-0.698498 -0.01058,-0.296332 -0.0635,-0.666748 0.158749,0.01058 0.296332,0.02117 0.137583,0 0.285749,0.01058 0.15875,0 0.338666,0 0.179916,0 0.423332,0 h 3.196156 q 0.402166,0 0.698498,-0.01058 0.296333,-0.02117 0.666748,-0.0635 v 1.396995 q -0.148166,-0.02117 -0.296332,-0.03175 -0.148167,-0.02117 -0.306916,-0.02117 -0.15875,-0.01058 -0.349249,-0.01058 -0.179916,-0.01058 -0.412749,-0.01058 h -3.04799 v 2.18016 h 2.571742 q 0.412749,0 0.719664,-0.01058 0.306916,-0.02117 0.656165,-0.0635 v 1.386412 q -0.15875,-0.02117 -0.306916,-0.03175 -0.137583,-0.02117 -0.296332,-0.02117 -0.15875,-0.01058 -0.349249,-0.01058 -0.179916,-0.01058 -0.423332,-0.01058 H 76.23358 v 2.497659 h 3.17499 q 0.444498,0 0.730247,-0.01058 0.285749,-0.02117 0.624415,-0.0635 z" />
      <path
         id="path1727"
         style="font-weight:bold;word-spacing:-2.64583000000000013px;fill:#ffffff"
         d="M 87.732831,56.040559 Q 87.574082,55.744227 87.394166,55.458478 87.224833,55.172729 87.02375,54.865813 l -1.492245,-2.264826 -1.481662,2.254243 q -0.1905,0.285749 -0.380999,0.603248 -0.179916,0.317499 -0.328082,0.582081 h -1.926161 q 0.232833,-0.296332 0.380999,-0.486831 0.15875,-0.201083 0.264583,-0.338666 0.105833,-0.148166 0.179916,-0.253999 0.08467,-0.105833 0.169332,-0.222249 l 2.24366,-3.153824 -1.947327,-2.751658 q -0.211666,-0.306915 -0.455082,-0.603248 -0.232833,-0.306915 -0.476249,-0.613831 h 1.894411 q 0.105833,0.243416 0.285749,0.560915 0.179916,0.306916 0.391582,0.624415 l 1.206496,1.79916 1.174747,-1.79916 Q 86.875584,48.56875 86.970834,48.41 q 0.105833,-0.169332 0.179916,-0.296332 0.07408,-0.127 0.126999,-0.243416 0.0635,-0.116416 0.116417,-0.253999 h 1.883827 q -0.222249,0.275166 -0.455082,0.582081 -0.222249,0.296333 -0.465665,0.634998 l -1.947327,2.741075 2.243659,3.153823 q 0.179916,0.264583 0.402166,0.550332 0.222249,0.285749 0.613831,0.761997 z" />
      <path
         id="path1729"
         style="font-weight:bold;word-spacing:-2.64583000000000013px;fill:#ffffff"
         d="m 90.585525,56.040559 q 0.05292,-0.317499 0.0635,-0.624414 0.02117,-0.306916 0.02117,-0.740831 v -5.725565 q 0,-0.380999 -0.02117,-0.687915 -0.01058,-0.317499 -0.0635,-0.677331 0.338665,0.02117 0.624414,0.03175 0.296333,0 0.719665,0 h 2.211909 q 0.772581,0 1.322913,0.190499 0.550331,0.179916 0.93133,0.560915 0.328082,0.317499 0.486832,0.783164 0.169333,0.465666 0.169333,1.037164 0,1.206496 -0.709081,1.947327 -0.391583,0.391582 -0.941914,0.582081 -0.550332,0.179916 -1.312329,0.179916 h -2.021411 v 1.767412 q 0,0.433915 0.01058,0.751414 0.02117,0.317499 0.07408,0.624414 z m 3.503072,-4.360319 q 0.730247,0 1.111246,-0.370415 0.391582,-0.380999 0.391582,-1.079497 0,-0.645581 -0.349249,-1.015997 -0.179916,-0.201082 -0.455082,-0.285749 -0.275165,-0.09525 -0.698497,-0.09525 h -2.021411 v 2.846908 z" />
      <path
         id="path1731"
         style="font-weight:bold;word-spacing:-2.64583000000000013px;fill:#ffffff"
         d="m 104.12091,56.114643 q -0.28575,-0.04233 -0.58209,-0.0635 -0.29633,-0.01058 -0.78316,-0.01058 h -3.301989 q -0.243416,0 -0.423332,0 -0.179917,0 -0.328083,0 -0.148166,0.01058 -0.296332,0.01058 -0.137583,0.01058 -0.296333,0.02117 0.04233,-0.317499 0.0635,-0.624414 0.02117,-0.306916 0.02117,-0.772581 v -5.725565 q 0,-0.412749 -0.02117,-0.698498 -0.01058,-0.296332 -0.0635,-0.666748 0.15875,0.01058 0.296333,0.02117 0.137583,0 0.285749,0.01058 0.158749,0 0.338666,0 0.179916,0 0.423332,0 h 3.196159 q 0.40216,0 0.69849,-0.01058 0.29634,-0.02117 0.66675,-0.0635 v 1.396995 q -0.14816,-0.02117 -0.29633,-0.03175 -0.14817,-0.02117 -0.30692,-0.02117 -0.15874,-0.01058 -0.34924,-0.01058 -0.17992,-0.01058 -0.41275,-0.01058 h -3.047993 v 2.18016 h 2.571743 q 0.41275,0 0.71966,-0.01058 0.30692,-0.02117 0.65617,-0.0635 v 1.386412 q -0.15875,-0.02117 -0.30692,-0.03175 -0.13758,-0.02117 -0.29633,-0.02117 -0.15875,-0.01058 -0.34925,-0.01058 -0.17992,-0.01058 -0.42333,-0.01058 h -2.582327 v 2.497659 h 3.174987 q 0.4445,0 0.73025,-0.01058 0.28575,-0.02117 0.62442,-0.0635 z" />
      <path
         id="path1733"
         style="font-weight:bold;word-spacing:-2.64583000000000013px;fill:#ffffff"
         d="m 105.44961,48.960332 q 0,-0.444499 -0.0212,-0.730248 -0.0106,-0.296332 -0.0635,-0.645581 0.15875,0.01058 0.29633,0.02117 0.13758,0 0.28575,0.01058 0.14817,0 0.32808,0 0.17992,0 0.43392,0 h 1.91558 q 0.99483,0 1.67216,0.222249 0.67733,0.211666 1.18533,0.709081 0.58208,0.550332 0.87841,1.365246 0.29633,0.804331 0.29633,1.841494 0,2.18016 -1.24883,3.365489 -0.50799,0.476249 -1.17474,0.698498 -0.65617,0.222249 -1.59808,0.222249 h -1.92616 q -0.24342,0 -0.42333,0 -0.17992,0 -0.32809,0 -0.14816,0.01058 -0.29633,0.01058 -0.13758,0.01058 -0.29633,0.02117 0.0212,-0.158749 0.0318,-0.306915 0.0212,-0.15875 0.0317,-0.317499 0.0106,-0.15875 0.0106,-0.338666 0.0106,-0.190499 0.0106,-0.433915 z m 3.09032,5.831398 q 0.65616,0 1.09008,-0.158749 0.4445,-0.15875 0.78316,-0.518582 0.381,-0.402165 0.5715,-0.99483 0.20108,-0.603248 0.20108,-1.354663 0,-1.502828 -0.73024,-2.264826 -0.32809,-0.338665 -0.77258,-0.486831 -0.43392,-0.148167 -1.13242,-0.148167 h -1.69333 v 5.926648 z" />
      <path
         id="path1735"
         style="font-weight:bold;word-spacing:-2.64583000000000013px;fill:#ffffff"
         d="m 115.51052,47.616253 q -0.0212,0.148166 -0.0423,0.296332 -0.0106,0.137583 -0.0212,0.296333 -0.0106,0.158749 -0.0212,0.349249 0,0.190499 0,0.423332 v 5.693815 q 0,0.465665 0.0106,0.772581 0.0212,0.296332 0.0741,0.592664 h -1.60866 q 0.0423,-0.296332 0.0635,-0.592664 0.0212,-0.306916 0.0212,-0.772581 v -5.693815 q 0,-0.243416 -0.0106,-0.423332 0,-0.1905 -0.0106,-0.338666 -0.0106,-0.158749 -0.0318,-0.296332 -0.0106,-0.148167 -0.0318,-0.306916 z" />
      <path
         id="path1737"
         style="font-weight:bold;word-spacing:-2.64583000000000013px;fill:#ffffff"
         d="m 120.71717,54.664731 q 0,0.433915 0.0106,0.740831 0.0212,0.306915 0.0741,0.634997 h -1.59808 q 0.0529,-0.338665 0.0635,-0.634997 0.0212,-0.306916 0.0212,-0.740831 v -5.778482 h -1.42875 q -0.47624,0 -0.82549,0.02117 -0.34925,0.01058 -0.62442,0.05292 V 47.54217 q 0.28575,0.04233 0.635,0.0635 0.34925,0.01058 0.80433,0.01058 h 4.19099 q 0.28575,0 0.508,0 0.22224,-0.01058 0.40216,-0.01058 0.17992,-0.01058 0.33867,-0.02117 0.15875,-0.02117 0.30691,-0.04233 v 1.418162 q -0.29633,-0.04233 -0.64558,-0.05292 -0.33866,-0.02117 -0.91016,-0.02117 h -1.32292 z" />
      <path
         id="path1739"
         style="font-weight:bold;word-spacing:-2.64583000000000013px;fill:#ffffff"
         d="m 126.11449,47.616253 q -0.0212,0.148166 -0.0423,0.296332 -0.0106,0.137583 -0.0212,0.296333 -0.0106,0.158749 -0.0212,0.349249 0,0.190499 0,0.423332 v 5.693815 q 0,0.465665 0.0106,0.772581 0.0212,0.296332 0.0741,0.592664 h -1.60866 q 0.0423,-0.296332 0.0635,-0.592664 0.0212,-0.306916 0.0212,-0.772581 v -5.693815 q 0,-0.243416 -0.0106,-0.423332 0,-0.1905 -0.0106,-0.338666 -0.0106,-0.158749 -0.0317,-0.296332 -0.0106,-0.148167 -0.0318,-0.306916 z" />
      <path
         id="path1741"
         style="font-weight:bold;word-spacing:-2.64583000000000013px;fill:#ffffff"
         d="m 131.26822,47.44692 q 1.72508,0 2.78341,1.05833 0.58208,0.582082 0.87842,1.428746 0.30691,0.83608 0.30691,1.873244 0,1.005413 -0.28575,1.820327 -0.27516,0.814914 -0.79375,1.396996 -0.51858,0.571498 -1.24882,0.888997 -0.73025,0.306916 -1.62983,0.306916 -0.89958,0 -1.62983,-0.306916 -0.73025,-0.317499 -1.24883,-0.888997 -0.508,-0.582082 -0.79375,-1.396996 -0.27516,-0.814914 -0.27516,-1.820327 0,-1.02658 0.30691,-1.873244 0.30692,-0.857248 0.89958,-1.428746 0.55033,-0.539748 1.21708,-0.793747 0.66675,-0.264583 1.51341,-0.264583 z m 0.0317,7.514143 q 0.5715,0 1.02658,-0.211666 0.45509,-0.222249 0.77258,-0.634998 0.3175,-0.412749 0.48684,-0.99483 0.16933,-0.582082 0.16933,-1.312329 0,-0.804331 -0.22225,-1.428746 -0.21167,-0.634998 -0.61383,-1.037163 -0.66675,-0.645581 -1.62983,-0.645581 -0.5715,0 -1.03716,0.222249 -0.45508,0.211666 -0.78317,0.624415 -0.3175,0.402165 -0.49741,0.984246 -0.16933,0.571499 -0.16933,1.291163 0,0.793747 0.22224,1.439329 0.22225,0.645581 0.635,1.05833 0.66675,0.645581 1.64041,0.645581 z" />
      <path
         id="path1743"
         style="font-weight:bold;word-spacing:-2.64583000000000013px;fill:#ffffff"
         d="m 141.98795,56.040559 q -0.13758,-0.275165 -0.29633,-0.529165 -0.14816,-0.253999 -0.381,-0.603248 l -2.73049,-4.116903 q -0.14816,-0.243416 -0.33866,-0.571498 -0.1905,-0.328083 -0.381,-0.698498 0,0.05292 0,0.09525 0.0106,0.03175 0.0106,0.08467 0.0106,0.05292 0.0106,0.137583 0.0106,0.07408 0.0212,0.222249 0,0.07408 0,0.201083 0.0106,0.116416 0.0106,0.243416 0.0106,0.126999 0.0106,0.253999 0.0106,0.127 0.0106,0.222249 v 3.471323 q 0,0.539748 0.0212,0.920747 0.0212,0.380998 0.0635,0.666747 h -1.54516 q 0.0423,-0.264582 0.0635,-0.656164 0.0212,-0.402165 0.0212,-0.941914 v -5.460982 q 0,-0.412749 -0.0212,-0.719665 -0.0106,-0.317499 -0.0635,-0.645581 h 1.65099 q 0.0741,0.201083 0.22225,0.465665 0.14817,0.253999 0.42333,0.656165 l 2.67758,4.032237 q 0.1905,0.285749 0.41274,0.666748 0.23284,0.370415 0.41275,0.687914 -0.0212,-0.158749 -0.0317,-0.349249 -0.0106,-0.190499 -0.0212,-0.380998 -0.0106,-0.201083 -0.0212,-0.391583 0,-0.201082 0,-0.370415 v -3.555989 q 0,-0.476248 -0.0212,-0.814914 -0.0106,-0.338665 -0.0635,-0.645581 h 1.54517 q -0.0529,0.317499 -0.0741,0.645581 -0.0106,0.328083 -0.0106,0.814914 v 5.598566 q 0,0.444498 0.0106,0.772581 0.0212,0.317499 0.0741,0.592664 z" />
      <path
         id="path1745"
         style="font-weight:bold;word-spacing:-2.64583000000000013px;fill:#ffffff"
         d="m 146.40449,53.415901 q 0.0317,0.359832 0.0847,0.560915 0.0635,0.190499 0.21167,0.370416 0.23283,0.306915 0.62441,0.465665 0.40217,0.158749 0.92075,0.158749 0.79375,0 1.23824,-0.328082 0.45509,-0.338666 0.45509,-0.941914 0,-0.328082 -0.14817,-0.582081 -0.13758,-0.253999 -0.381,-0.391582 -0.11641,-0.0635 -0.22225,-0.105833 -0.0953,-0.04233 -0.27516,-0.08467 -0.16934,-0.05292 -0.48684,-0.126999 -0.30691,-0.07408 -0.85724,-0.201083 -0.59267,-0.137583 -0.9525,-0.275166 -0.35983,-0.148166 -0.64558,-0.370415 -0.81491,-0.634998 -0.81491,-1.714495 0,-0.550331 0.21166,-0.99483 0.21167,-0.455082 0.60325,-0.772581 0.40216,-0.317499 0.9525,-0.486832 0.55033,-0.169332 1.23824,-0.169332 0.91017,0 1.57691,0.275165 0.66675,0.264583 1.05833,0.793748 0.20109,0.264582 0.30692,0.539748 0.11642,0.264583 0.21167,0.687915 l -1.51342,0.179916 q -0.0529,-0.275166 -0.11641,-0.433916 -0.0635,-0.158749 -0.20109,-0.317499 -0.42333,-0.507998 -1.32291,-0.507998 -0.6985,0 -1.12183,0.317499 -0.42333,0.317499 -0.42333,0.836081 0,0.645581 0.71967,0.96308 0.0847,0.03175 0.15874,0.0635 0.0847,0.02117 0.23284,0.0635 0.14816,0.04233 0.40216,0.105833 0.254,0.05292 0.6985,0.148166 0.635,0.137583 1.03716,0.296332 0.40217,0.148166 0.68792,0.349249 0.45508,0.338666 0.66675,0.783164 0.21166,0.433915 0.21166,1.037164 0,1.132413 -0.66675,1.799161 -0.83608,0.80433 -2.5294,0.80433 -0.65617,0 -1.24883,-0.148166 -0.59267,-0.148166 -0.97367,-0.402165 -0.62441,-0.423332 -0.93133,-1.206496 -0.0741,-0.179917 -0.11641,-0.359833 -0.0317,-0.190499 -0.0847,-0.518581 z" />
    </g>
  </g>
</svg>
